<svg id="Capa_1" data-name="Capa 1" xmlns="http://www.w3.org/2000/svg" viewBox="0 0 1237.23 800"><defs><style>.cls-1{fill:#adadad;}.cls-2{fill:#999;}.cls-3{fill:#e9e9e9;}.cls-4{fill:#828282;}.cls-5{fill:#bdbdbd;}.cls-6{fill:#949494;}.cls-7{fill:#d6d6d6;}</style></defs><title>fondo website</title><rect class="cls-1" x="1142.06" y="444.04" width="95.15" height="88.01"/><polyline class="cls-2" points="1196.2 463.75 1237.21 498.87 1237.21 532 1195.02 532 1187.16 514.15 1187.08 489.88 1187.66 483.49 1183.87 479.44 1182.48 463.91"/><path class="cls-3" d="M1183.85,469.35h13.94v-1.47a6.19,6.19,0,0,0-6.19-6.19h-17.13v7.66h2.1l.75.75a.76.76,0,0,1,0,1.07l-.45.45a.76.76,0,0,0,0,1.07l.45.45a.76.76,0,0,1,0,1.07l-.45.45a.76.76,0,0,0,0,1.07l.45.45a.76.76,0,0,1,0,1.07l-.47.47a.76.76,0,0,0,0,1c.47.52.94,1.09.94,1.09h-3.29v2.21h-2.84v3.24h2.84v2.21h2l.85.85a.76.76,0,0,1,0,1.07l-.56.56a.3.3,0,0,0,.21.51h6.88v-3h3.24v27.12a3,3,0,0,0,3,3h2.21a3,3,0,0,0,3-3V487.53h2.48v-7.66h-2.48v-3h-8.23v3h-3.24Z"/><rect class="cls-4" width="95.15" height="89.95"/><rect class="cls-5" x="95.15" width="95.18" height="89.95"/><rect class="cls-3" x="0.01" y="622.49" width="95.18" height="89.51"/><rect class="cls-1" x="95.2" y="622.49" width="95.15" height="89.47"/><rect class="cls-5" y="89.47" width="95.15" height="88.04"/><rect class="cls-1" x="95.15" y="89.47" width="95.18" height="88.04"/><rect class="cls-4" y="355.98" width="95.18" height="88.04"/><rect class="cls-1" x="95.18" y="355.98" width="95.15" height="88.04"/><rect class="cls-3" y="177.51" width="95.15" height="87.57"/><rect class="cls-4" x="95.15" y="177.51" width="95.18" height="87.57"/><rect class="cls-3" y="444.02" width="95.18" height="87.57"/><rect class="cls-5" x="95.18" y="444.02" width="95.15" height="87.57"/><rect class="cls-1" y="264.6" width="95.15" height="91.37"/><rect class="cls-3" x="95.15" y="264.6" width="95.18" height="91.37"/><rect class="cls-5" y="531.11" width="95.18" height="91.37"/><rect class="cls-4" x="95.18" y="531.11" width="95.15" height="91.37"/><polyline class="cls-6" points="62.15 376.68 95.18 410.5 95.18 444.02 46.28 443.9 18.44 414.4"/><polyline class="cls-6" points="71.2 22.21 95.13 55.62 95.15 89.47 46.73 89.48 21.89 73.59 36.06 62.27 25.19 48.3 27.57 46.4 55.1 25.71 71.2 22.21"/><polyline class="cls-6" points="165.19 562.36 190.33 587.21 190.33 622.49 128.19 622.49 110.54 600.36 117.12 594.88"/><polyline class="cls-6" points="140.2 193.85 190.33 239.86 190.33 264.6 143.85 264.6 124.5 246.52 128.78 231.77 131.16 223.52 137.98 220.82 140.2 193.85"/><polygon class="cls-2" points="165.44 381.65 190.33 410.21 190.33 444.02 137.62 444.02 114.27 428.95 120.7 424.57 121 421.36 140.69 401.22 142.95 403.45 144.71 402.26 137.57 394.29 139.59 392.62 165.44 381.65"/><polygon class="cls-7" points="64.93 193.69 95.15 236.76 95.15 264.6 48.83 264.6 41.02 249 48.63 232.35 46.01 230.57 45.03 221.8 45.54 219.63 22.1 214.75 22.93 202.5 64.81 209.4 64.93 193.69"/><polygon class="cls-7" points="147.62 283.64 190.33 326.23 190.36 355.98 144.01 355.98 124.42 336.82 131.2 317.19 136.67 312.31 140.21 311.27 146.31 301.96 147.62 283.64"/><polygon class="cls-7" points="52.84 640.57 95.2 684.12 95.23 711.93 48.88 712 33.8 694.35 44.87 666.15 51.17 659.85 52.84 640.57"/><polyline class="cls-2" points="156.54 472.34 190.33 497.26 190.33 531.11 149.12 531.13 133.82 514.93 135.96 483.88 139.65 474.12 153.09 474.6 156.53 472.34"/><polyline class="cls-2" points="31.08 158.66 29.77 161.66 27.19 161.68 27.09 160.56 23.23 160.62 21.03 161.66 46.72 177.39 95.13 177.51 95.07 164.74 65.41 113.86 65.25 116.28 64.53 136.66 53.83 145.07 42.8 144.52 35.54 144.74 35.57 148.73 40.78 153.48 40.66 157.17 29.77 161.67"/><polyline class="cls-2" points="111.17 65.67 141.97 89.46 190.31 89.46 190.25 76.7 148.45 29.35 147.82 50.13 149.01 57.03 137.98 56.47 130.73 56.69"/><polyline class="cls-2" points="24.27 604.76 46.75 622.49 95.16 622.49 95.18 601.25 70.91 565.62 59.73 553.24 32.6 578.11 27.96 582.75 26.06 587.75"/><path class="cls-5" d="M73.45,388.35,61.66,376a3,3,0,0,0-4.3-.11L44.16,388.42l.83.67-26.6,25.32,7.34,7.71L26,420.5l3.55.34.53-3.28,3.52.51.56-3.46,3.51.57.56-3.51,3.51.56.56-3.52,3.51.57.57-3.51,3.51.56.57-3.51,3.51.56.56-3.51,4.56.73,3.25,2.51,11-10.46A3,3,0,0,0,73.45,388.35Zm-6,2.82-5.38,5.12L51.94,388.1l6.61-6.29a1.15,1.15,0,0,1,1.62,0l.65.68a2.61,2.61,0,0,0-.09,3.69l2.43,2.56a2.61,2.61,0,0,0,3.69.09l.65.68a1.15,1.15,0,0,1,0,1.63Z"/><rect class="cls-4" x="95.2" y="711.96" width="95.18" height="88.04"/><polyline class="cls-6" points="157.34 732.66 190.38 766.48 190.38 800 141.48 799.88 113.64 770.38"/><path class="cls-5" d="M168.64,744.33l-11.79-12.39a3,3,0,0,0-4.3-.11L139.36,744.4l.83.67-26.6,25.32,7.34,7.71.26-1.62,3.55.34.53-3.28,3.52.51.56-3.46,3.51.57.56-3.51,3.51.56.56-3.52,3.51.57.57-3.51,3.51.56.57-3.51,3.51.56.56-3.51,4.56.73,3.25,2.51,11-10.46A3,3,0,0,0,168.64,744.33Zm-6,2.82-5.38,5.12-10.14-8.18,6.61-6.29a1.15,1.15,0,0,1,1.62,0l.65.68a2.61,2.61,0,0,0-.09,3.69l2.43,2.56a2.61,2.61,0,0,0,3.69.09l.65.68a1.15,1.15,0,0,1,0,1.63Z"/><path class="cls-4" d="M156.54,472.34h0a11.68,11.68,0,0,1-11.54-10h-2.68v-2.11h-9v2.11H119v15.23h14.22v35.77a2.94,2.94,0,0,0,2.94,2.94h3.18a2.94,2.94,0,0,0,2.94-2.94V477.57h14.22Z"/><polygon class="cls-3" points="145.67 402.02 137.21 393.56 134.6 396.18 136.84 398.42 117.83 417.42 114.41 417.74 110.27 424.98 114.25 428.96 121.56 424.74 121.81 421.4 140.82 402.39 143.06 404.63 145.67 402.02"/><path class="cls-3" d="M153.24,374.54l-16.54,16.54,11.45,11.45L165,385.7a3.25,3.25,0,0,0,0-4.6l-6.55-6.55A3.68,3.68,0,0,0,153.24,374.54Z"/><rect class="cls-1" x="0.03" y="711.96" width="95.15" height="88.04"/><polygon class="cls-2" points="70.29 737.63 95.18 766.19 95.18 800 42.47 800 19.12 784.93 25.55 780.55 25.85 777.34 45.54 757.2 47.8 759.43 49.55 758.24 42.41 750.27 44.44 748.6 70.29 737.63"/><polygon class="cls-3" points="50.52 758 42.06 749.54 39.45 752.15 41.69 754.39 22.68 773.4 19.26 773.72 15.12 780.96 19.1 784.94 26.41 780.72 26.66 777.38 45.66 758.37 47.9 760.61 50.52 758"/><path class="cls-3" d="M58.08,730.52,41.54,747.06,53,758.51l16.84-16.84a3.25,3.25,0,0,0,0-4.6l-6.55-6.55A3.68,3.68,0,0,0,58.08,730.52Z"/><polyline class="cls-2" points="53.09 283.49 95.13 322.13 95.15 355.98 47.01 355.98 39.15 338.01 43.79 338.13 47.6 336.11 48.27 319.04 45.69 318.92 38.99 319.57 38.99 316.48 39.2 296.79 53.06 283.47"/><polyline class="cls-2" points="149.34 642.24 190.35 678.11 190.35 711.96 148.15 711.96 140.3 693.71 140.22 668.93 140.79 662.4 137.01 658.26 135.62 642.39"/><polyline class="cls-2" points="160.59 114.46 190.31 143.66 190.33 177.51 152.42 177.51 138.54 160.54 144.49 134.48 145.06 127.96 141.28 123.81 141.31 116.83"/><polyline class="cls-7" points="65.32 472.58 95.18 507.56 95.18 531.11 51 531.19 24.83 514.3 50.33 490.06 54.97 486.73 59.25 481.5 63.06 478.41"/><path class="cls-3" d="M39.6,301.52a4.34,4.34,0,1,1,8.69,0v13.7h5.63A2.93,2.93,0,0,0,56.83,312l-3.28-28H34.34l-3.28,28a2.92,2.92,0,0,0,2.9,3.26H39.6Z"/><path class="cls-3" d="M46.55,301.52a2.61,2.61,0,1,0-5.21,0V319H38.75v17.54a2.92,2.92,0,0,0,2.92,2.92h4.55a2.92,2.92,0,0,0,2.92-2.92V319H46.55Z"/><path class="cls-4" d="M51.28,148.73H35.57v-7.19H41v-7.77h7.19v7.77h3.11a9.29,9.29,0,0,0,9.28-9.28v-10A9.29,9.29,0,0,0,51.28,113H35.57v-7.19H51.28A16.49,16.49,0,0,1,67.76,122.3v10A16.49,16.49,0,0,1,51.28,148.73Z"/><polygon class="cls-4" points="27.51 153.91 27.51 155.99 29.77 155.99 29.77 153.91 40.98 153.91 40.98 151.46 48.18 151.46 48.18 153.91 59.39 153.91 59.39 155.99 65.84 155.99 65.84 153.91 72.28 153.91 72.28 161.67 65.84 161.67 65.84 159.59 59.39 159.59 59.39 161.67 29.77 161.67 29.77 159.59 27.51 159.59 27.51 161.67 21.06 161.67 21.06 153.91 27.51 153.91"/><path class="cls-4" d="M48.1,128.3a2.55,2.55,0,0,1,2.54,2.55v1H38.56v-1a2.55,2.55,0,0,1,2.54-2.55Z"/><path class="cls-3" d="M137,647.8h13.94v-1.47a6.19,6.19,0,0,0-6.19-6.19H127.61v7.66h2.1l.75.75a.76.76,0,0,1,0,1.07l-.45.45a.76.76,0,0,0,0,1.07l.45.45a.76.76,0,0,1,0,1.07l-.45.45a.76.76,0,0,0,0,1.07l.45.45a.76.76,0,0,1,0,1.07l-.47.47a.76.76,0,0,0,0,1c.47.52.94,1.09.94,1.09h-3.29v2.21h-2.84v3.24h2.84V666h2l.85.85a.76.76,0,0,1,0,1.07l-.56.56a.3.3,0,0,0,.21.51H137v-3h3.24V693.1a3,3,0,0,0,3,3h2.21a3,3,0,0,0,3-3V666h2.48v-7.66h-2.48v-3h-8.23v3H137Z"/><path class="cls-5" d="M71.33,36.46a8.93,8.93,0,0,0,1.41-12.55l-2.23-2.79A8.93,8.93,0,0,0,58,19.71L25.47,45.65,38.84,62.4Zm-7.75-3.58a2.36,2.36,0,0,1-.37,3.31L56,42a2.36,2.36,0,0,1-3.31-.37l-1.2-1.5L38.33,50.59l-1.46-1.82L50,38.26l-1.2-1.5a2.35,2.35,0,0,1,.37-3.31l7.21-5.76a2.36,2.36,0,0,1,3.31.37l1.2,1.5L65.45,26l1.45,1.82-4.52,3.61Z"/><path class="cls-5" d="M38.76,32.42l-.64-.81a2.36,2.36,0,0,0-3.73.06l-3,4-4.6,2a2.36,2.36,0,0,0-.88,3.62l.64.81Z"/><polygon class="cls-5" points="20.41 52.05 21.89 73.55 36.08 62.24 25.02 48.37 20.41 52.05"/><rect class="cls-4" x="1142.05" y="709.58" width="95.15" height="89.95"/><polyline class="cls-6" points="1213.24 731.79 1237.18 765.2 1237.2 799.05 1188.77 799.06 1163.94 783.16 1178.11 771.84 1167.24 757.88 1169.62 755.98 1197.14 735.29 1213.24 731.79"/><path class="cls-5" d="M1213.38,746a8.93,8.93,0,0,0,1.41-12.55l-2.23-2.79a8.93,8.93,0,0,0-12.55-1.41l-32.5,25.94L1180.88,772Zm-7.75-3.58a2.36,2.36,0,0,1-.37,3.31l-7.22,5.76a2.36,2.36,0,0,1-3.31-.37l-1.2-1.5-13.15,10.5-1.46-1.82,13.16-10.5-1.2-1.5a2.35,2.35,0,0,1,.37-3.31l7.21-5.76a2.36,2.36,0,0,1,3.31.37l1.2,1.5,4.52-3.61,1.45,1.82-4.52,3.61Z"/><path class="cls-5" d="M1180.8,742l-.64-.81a2.36,2.36,0,0,0-3.73.06l-3,4-4.6,2a2.36,2.36,0,0,0-.88,3.62l.64.81Z"/><polygon class="cls-5" points="1162.45 761.63 1163.94 783.13 1178.12 771.81 1167.06 757.95 1162.45 761.63"/><path class="cls-1" d="M64.82,199.42v-6H25v6h-5.4v17.9l23.21,3.73V231h-2.1v18.28h8.43V231H46.85V217.84l-23.22-3.73V203.42H25v6.05H64.82v-6.05h1.6v-4Zm-2.07,8.76s-.76-.27-1.35-2.9c-.52-2.33-3-1.77-4.19-1.19-.86.41-2.59,1.71-2.59-1.55s-2.13-1.13-3.64-2.37-.71-2.47-1.38-3c-1.38-1.17-5.12-1.69-5.12-1.69H62.75Z"/><path class="cls-1" d="M148.5,305.2,153,300l-5.3-16.39h-5.3v4.87a4.37,4.37,0,0,1,0,8.7v2.3h-.9v-2.3a4.37,4.37,0,0,1,0-8.71v-4.86h-5.3L130.86,300l4.47,5.17A42.09,42.09,0,0,0,124,334.49a4.79,4.79,0,1,0,9.59,0,32.69,32.69,0,0,1,8.36-22.32,32.69,32.69,0,0,1,8.36,22.32,4.79,4.79,0,1,0,9.59,0A42.09,42.09,0,0,0,148.5,305.2Z"/><path class="cls-5" d="M164.38,561.63a1.9,1.9,0,0,0-2,.43l-6.23,6.29-9.08-9,6.27-6.33a1.9,1.9,0,0,0-1.28-3.23,14,14,0,0,0-13.79,18.46l-27,27.24a4.11,4.11,0,0,0,0,5.81l3.24,3.21a4.1,4.1,0,0,0,5.81,0l27-27.26a14,14,0,0,0,18.26-13.91A1.9,1.9,0,0,0,164.38,561.63Zm-45.3,38.47a2.44,2.44,0,1,1,0-3.45A2.44,2.44,0,0,1,119.08,600.11Z"/><path class="cls-3" d="M162.26,120.37a11.52,11.52,0,0,0-11.52-11.52H132.56v1.92h-1.31v-4.52h-7.72v18.15h7.72v-4.52h1.31v1.92h5.56V159.1a3.1,3.1,0,0,0,3.1,3.1h3.35a3.1,3.1,0,0,0,3.1-3.1V121.81h14.59Z"/><path class="cls-4" d="M163.29,57.78v1.47h-9.35V42.68h0a21.35,21.35,0,0,0-42.66,0h0V65.53h42.76V62.19h9.35v7.88h1.26a2.35,2.35,0,0,0,2.35-2.35v-7.6a2.35,2.35,0,0,0-2.35-2.35ZM132.55,55a11.39,11.39,0,1,1,11.38-11.38A11.39,11.39,0,0,1,132.55,55Z"/><path class="cls-4" d="M130.52,42.89v0a2.51,2.51,0,0,0,1.92-2.43c0-1.44-1.24-2.61-3.48-2.61a6.59,6.59,0,0,0-3.24.79l.5,1.77a4.75,4.75,0,0,1,2.19-.63c1,0,1.55.47,1.55,1.09,0,.89-1,1.19-1.87,1.21h-1v1.76h1c1.08,0,2.11.47,2.11,1.5,0,.79-.65,1.4-1.92,1.4a5.82,5.82,0,0,1-2.44-.64l-.5,1.84a6.17,6.17,0,0,0,3.11.74c2.66,0,4.29-1.36,4.29-3.21A2.6,2.6,0,0,0,130.52,42.89Z"/><path class="cls-4" d="M139.26,42.94a1.85,1.85,0,0,0-1,.25,2.29,2.29,0,0,0-.67.62h0a1.47,1.47,0,0,0-1.42-.88,1.8,1.8,0,0,0-1.57.82h0l-.07-.7h-1.35c0,.45,0,1,0,1.65v3.52h1.57v-3a1,1,0,0,1,.06-.4.82.82,0,0,1,.75-.58c.51,0,.74.45.74,1.1v2.9h1.57v-3a1.32,1.32,0,0,1,.07-.41.79.79,0,0,1,.74-.56c.52,0,.76.44.76,1.19v2.81H141v-3C141,43.64,140.26,42.94,139.26,42.94Z"/><path class="cls-1" d="M70.45,479,65,472.19,50.24,484l1.24,1.55L39.59,495l-.89-1.12-16,12.76a3.23,3.23,0,0,0-.51,4.54l2.18,2.73a3.23,3.23,0,0,0,4.54.51l16-12.76L44,500.51,55.94,491a2.24,2.24,0,0,0,3,.17l3.05-2.43,1.75,2.2,5.09-4.06L67,484.67l3-2.43A2.27,2.27,0,0,0,70.45,479Z"/><path class="cls-1" d="M50.26,481.55l12.37-9.87-9.18-11.51a2.27,2.27,0,0,0-3.19-.36l-8.82,7a2.27,2.27,0,0,0-.36,3.19Zm3.62-15.76,4.47,5.6-1.43,1.14-4.47-5.61Zm-2.51-3.15,1.39,1.74-1.43,1.14-1.39-1.74Z"/><rect class="cls-3" x="285.48" y="711.96" width="95.18" height="87.57"/><rect class="cls-5" x="190.33" y="711.96" width="95.15" height="87.57"/><polyline class="cls-2" points="251.69 740.27 285.49 765.2 285.49 799.05 244.27 799.07 228.97 782.87 231.11 751.81 234.8 742.06 248.25 742.53 251.69 740.27"/><path class="cls-4" d="M251.69,740.27h0a11.68,11.68,0,0,1-11.54-10h-2.68v-2.11h-9v2.11H214.19v15.23h14.22v35.77a2.94,2.94,0,0,0,2.94,2.94h3.18a2.94,2.94,0,0,0,2.94-2.94V745.51h14.22Z"/><polyline class="cls-7" points="350.95 740.51 380.82 775.49 380.82 799.05 336.64 799.13 310.46 782.23 335.96 758 340.6 754.67 344.89 749.43 348.69 746.34"/><path class="cls-1" d="M356.08,747l-5.47-6.85-14.74,11.76,1.24,1.55-11.88,9.48-.89-1.12-16,12.76a3.23,3.23,0,0,0-.51,4.54l2.18,2.73a3.23,3.23,0,0,0,4.54.51l16-12.76-.89-1.12,11.93-9.52a2.24,2.24,0,0,0,3,.17l3.05-2.43,1.75,2.2,5.09-4.06-1.75-2.2,3-2.43A2.27,2.27,0,0,0,356.08,747Z"/><path class="cls-1" d="M335.89,749.48l12.37-9.87-9.18-11.51a2.27,2.27,0,0,0-3.19-.36l-8.82,7a2.27,2.27,0,0,0-.36,3.19Zm3.62-15.76,4.47,5.6-1.43,1.14-4.47-5.61ZM337,730.57l1.39,1.74L337,733.45l-1.39-1.74Z"/><path class="cls-1" d="M57.12,663.68l-4.39-23.36H49.85v19.36H46.09V640.32H43.21l-4.39,23.36L42.52,668a34.83,34.83,0,0,0-9.4,24.23,4,4,0,1,0,7.93,0,27,27,0,0,1,6.79-18.32h0s3.66-3.94,6.14-6.55C55.07,666.17,57.12,663.68,57.12,663.68Zm-9.19,4.92a1.42,1.42,0,1,1,1.42-1.43A1.42,1.42,0,0,1,47.93,668.6Z"/><path class="cls-1" d="M54.36,669l-5.43,5.85a27,27,0,0,1,6,17.32,4,4,0,1,0,7.93,0A34.79,34.79,0,0,0,54.36,669Z"/><rect class="cls-3" x="1142.05" y="531.11" width="95.18" height="91.63"/><polygon class="cls-7" points="1194.87 551.32 1237.23 594.87 1237.26 622.68 1190.91 622.75 1175.84 605.1 1186.9 576.9 1193.21 570.59 1194.87 551.32"/><rect class="cls-1" x="1142.06" y="622.49" width="95.15" height="89.47"/><polygon class="cls-2" points="1212.32 648.57 1237.21 677.6 1237.21 711.96 1184.5 711.96 1161.15 696.64 1167.58 692.19 1167.88 688.92 1187.57 668.46 1189.83 670.73 1191.59 669.52 1184.45 661.42 1186.47 659.73 1212.32 648.57"/><polygon class="cls-3" points="1192.55 669.27 1184.09 660.68 1181.48 663.34 1183.72 665.61 1164.71 684.92 1161.29 685.25 1157.15 692.61 1161.13 696.65 1168.44 692.36 1168.69 688.97 1187.7 669.65 1189.93 671.93 1192.55 669.27"/><path class="cls-3" d="M1200.11,641.35l-16.54,16.81L1195,669.8l16.84-17.11a3.34,3.34,0,0,0,0-4.67l-6.55-6.66A3.64,3.64,0,0,0,1200.11,641.35Z"/><path class="cls-1" d="M1199.15,574.43l-4.39-23.36h-2.88v19.36h-3.76V551.07h-2.88l-4.39,23.36,3.69,4.28a34.83,34.83,0,0,0-9.4,24.23,4,4,0,0,0,7.93,0,27,27,0,0,1,6.79-18.32h0s3.66-3.94,6.14-6.55C1197.1,576.92,1199.15,574.43,1199.15,574.43Zm-9.19,4.92a1.42,1.42,0,1,1,1.42-1.43A1.42,1.42,0,0,1,1190,579.35Z"/><path class="cls-1" d="M1196.4,579.77l-5.43,5.85a27,27,0,0,1,6,17.32,4,4,0,1,0,7.93,0A34.79,34.79,0,0,0,1196.4,579.77Z"/><path class="cls-4" d="M74.22,566,62.67,550.77a3.4,3.4,0,0,0-4.76-.66l-16.23,12.3,1.88,1.91L28.91,575.37a20.62,20.62,0,0,0-5.67,26.28l-1,.73,2,2.68,34.09-25.72L60,581l13.52-10.25A3.39,3.39,0,0,0,74.22,566ZM29.55,596.88a12.83,12.83,0,0,1,4-15.29l15.48-11.68,6.93,7Zm37.65-28.49-6.61,5L50.35,563l8.14-6.17a1.29,1.29,0,0,1,1.8.25l.63.83a2.91,2.91,0,0,0-.56,4.08l2.38,3.15a2.88,2.88,0,0,0,1.93,1.13,2.91,2.91,0,0,0,2.16-.57l.63.83a1.29,1.29,0,0,1-.25,1.8Z"/><rect class="cls-4" x="1142.02" y="89.45" width="95.18" height="88.04"/><rect class="cls-3" x="1142.05" y="355.96" width="95.18" height="88.06"/><rect class="cls-3" x="1142.02" y="177.5" width="95.18" height="87.57"/><rect class="cls-1" x="1142.02" width="95.15" height="89.45"/><rect class="cls-5" x="1142.02" y="264.59" width="95.18" height="91.37"/><polyline class="cls-6" points="1204.16 110.15 1237.2 143.97 1237.2 177.5 1188.3 177.38 1160.46 147.87"/><polygon class="cls-7" points="1207 372.23 1237.23 415.55 1237.23 443.54 1190.89 443.54 1183.08 427.85 1190.69 411.11 1188.08 409.32 1187.09 400.5 1187.6 398.31 1164.15 393.41 1164.99 381.09 1206.88 388.03 1207 372.23"/><polyline class="cls-2" points="1166.29 338.23 1188.77 355.96 1237.18 355.96 1237.2 334.72 1212.93 299.09 1201.74 286.72 1174.62 311.58 1169.98 316.22 1168.07 321.22"/><path class="cls-5" d="M1215.47,121.83l-11.79-12.39a3,3,0,0,0-4.3-.11l-13.19,12.56.83.67-26.6,25.32,7.34,7.71L1168,154l3.55.34.53-3.28,3.52.51.56-3.46,3.51.57.56-3.51,3.51.56.56-3.52,3.51.57.57-3.51,3.51.56.57-3.51,3.51.56.56-3.51,4.56.73,3.25,2.51,11-10.46A3,3,0,0,0,1215.47,121.83Zm-6,2.82-5.38,5.12L1194,121.58l6.61-6.29a1.15,1.15,0,0,1,1.62,0l.65.68a2.61,2.61,0,0,0-.09,3.69l2.43,2.56a2.61,2.61,0,0,0,3.69.09l.65.68a1.15,1.15,0,0,1,0,1.63Z"/><polyline class="cls-2" points="1195.1 16.96 1237.15 55.6 1237.17 89.45 1189.02 89.45 1181.17 71.48 1185.81 71.61 1189.62 69.58 1190.29 52.51 1187.7 52.39 1181.01 53.05 1181.01 49.95 1181.22 30.26 1195.08 16.95"/><polyline class="cls-7" points="1207.34 206.05 1237.2 241.03 1237.2 264.59 1193.02 264.67 1166.85 247.77 1192.35 223.54 1196.99 220.21 1201.27 214.97 1205.08 211.88"/><path class="cls-3" d="M1181.62,35a4.34,4.34,0,1,1,8.69,0v13.7h5.63a2.93,2.93,0,0,0,2.91-3.27l-3.28-28h-19.22l-3.28,28a2.92,2.92,0,0,0,2.9,3.26h5.64Z"/><path class="cls-3" d="M1188.57,35a2.61,2.61,0,1,0-5.21,0V52.48h-2.59V70a2.92,2.92,0,0,0,2.92,2.92h4.55a2.92,2.92,0,0,0,2.92-2.92V52.48h-2.59Z"/><path class="cls-1" d="M1206.88,378v-6.08h-39.79V378h-5.4v18l23.22,3.75v10h-2.1v18.38h8.43V409.7h-2.34V396.52l-23.22-3.75V382h1.41v6.09h39.79V382h1.6v-4Zm-2.07,8.81s-.76-.27-1.35-2.92c-.52-2.34-3-1.78-4.2-1.2-.86.42-2.59,1.72-2.59-1.56s-2.14-1.14-3.64-2.38-.71-2.48-1.38-3.05c-1.38-1.18-5.12-1.7-5.12-1.7h18.27Z"/><path class="cls-1" d="M1212.47,212.52l-5.47-6.85-14.74,11.76,1.24,1.55-11.88,9.48-.89-1.12-16,12.76a3.23,3.23,0,0,0-.51,4.54l2.18,2.73a3.23,3.23,0,0,0,4.54.51l16-12.76L1186,234l11.93-9.52a2.24,2.24,0,0,0,3,.17l3.05-2.43,1.75,2.2,5.09-4.06-1.75-2.2,3-2.43A2.27,2.27,0,0,0,1212.47,212.52Z"/><path class="cls-1" d="M1192.27,215l12.37-9.87-9.18-11.51a2.27,2.27,0,0,0-3.19-.36l-8.82,7a2.27,2.27,0,0,0-.36,3.19Zm3.62-15.76,4.47,5.6-1.43,1.14-4.47-5.61Zm-2.51-3.15,1.39,1.74-1.43,1.14-1.39-1.74Z"/><path class="cls-4" d="M1216.24,299.49l-11.55-15.24a3.4,3.4,0,0,0-4.76-.66l-16.23,12.3,1.88,1.91-14.64,11.05a20.62,20.62,0,0,0-5.67,26.28l-1,.73,2,2.68,34.09-25.72,1.65,1.68,13.52-10.25A3.39,3.39,0,0,0,1216.24,299.49Zm-44.66,30.87a12.83,12.83,0,0,1,4-15.29l15.48-11.68,6.93,7Zm37.65-28.49-6.61,5-10.25-10.37,8.14-6.17a1.29,1.29,0,0,1,1.8.25l.63.83a2.91,2.91,0,0,0-.56,4.08l2.38,3.15a2.88,2.88,0,0,0,1.93,1.13,2.91,2.91,0,0,0,2.16-.57l.63.83a1.29,1.29,0,0,1-.25,1.8Z"/><rect class="cls-3" x="190.33" y="355.98" width="95.18" height="88.05"/><rect class="cls-1" x="285.52" y="355.98" width="95.15" height="88.01"/><rect class="cls-4" x="190.32" y="89.47" width="95.18" height="88.04"/><rect class="cls-1" x="285.5" y="89.47" width="95.15" height="88.04"/><rect class="cls-3" x="190.32" y="177.51" width="95.18" height="87.57"/><rect class="cls-5" x="285.5" y="177.51" width="95.15" height="87.57"/><rect class="cls-1" x="190.32" width="95.15" height="89.47"/><rect class="cls-3" x="285.47" width="95.18" height="89.47"/><rect class="cls-5" x="190.32" y="264.6" width="95.18" height="91.37"/><rect class="cls-4" x="285.5" y="264.6" width="95.15" height="91.37"/><polyline class="cls-6" points="252.46 110.17 285.5 143.99 285.5 177.51 236.6 177.39 208.76 147.88"/><polyline class="cls-6" points="355.51 295.85 380.65 320.7 380.65 355.98 318.51 355.98 300.86 333.85 307.44 328.37"/><polygon class="cls-2" points="355.76 115.14 380.65 143.7 380.65 177.51 327.94 177.51 304.59 162.44 311.02 158.06 311.32 154.84 331.01 134.71 333.27 136.94 335.02 135.75 327.89 127.78 329.91 126.11 355.76 115.14"/><polygon class="cls-7" points="337.94 17.13 380.65 59.72 380.68 89.47 334.33 89.47 314.74 70.31 321.52 50.68 326.99 45.8 330.53 44.76 336.63 35.45 337.94 17.13"/><polygon class="cls-7" points="243.16 374.06 285.51 416.69 285.55 443.91 239.19 443.98 224.12 426.71 235.19 399.1 241.49 392.93 243.16 374.06"/><polyline class="cls-2" points="346.86 205.83 380.65 230.75 380.65 264.6 339.44 264.62 324.14 248.42 326.28 217.37 329.97 207.61 343.41 208.09 346.85 205.82"/><polyline class="cls-2" points="214.59 338.25 237.07 355.98 285.48 355.98 285.5 334.74 261.23 299.11 250.04 286.73 222.92 311.6 218.28 316.24 216.38 321.23"/><path class="cls-5" d="M263.77,121.84,252,109.45a3,3,0,0,0-4.3-.11l-13.19,12.56.83.67-26.6,25.32,7.34,7.71.26-1.62,3.55.34.53-3.28,3.52.51.56-3.46,3.51.57.56-3.51,3.51.56.56-3.52,3.51.57.57-3.51,3.51.56.57-3.51,3.51.56.56-3.51,4.56.73,3.25,2.51,11-10.46A3,3,0,0,0,263.77,121.84Zm-6,2.82-5.38,5.12-10.14-8.18,6.61-6.29a1.15,1.15,0,0,1,1.62,0l.65.68a2.61,2.61,0,0,0-.09,3.69l2.43,2.56a2.61,2.61,0,0,0,3.69.09l.65.68a1.15,1.15,0,0,1,0,1.63Z"/><rect class="cls-4" x="285.52" y="444.02" width="95.18" height="89.47"/><polyline class="cls-6" points="347.66 466.15 380.7 499.97 380.7 533.49 331.8 533.37 303.96 503.86"/><path class="cls-5" d="M359,477.82l-11.79-12.39a3,3,0,0,0-4.3-.11l-13.19,12.56.83.67-26.6,25.32,7.34,7.71.26-1.62,3.55.34.53-3.28,3.52.51.56-3.46,3.51.57.56-3.51,3.51.56.56-3.52,3.51.57.57-3.51,3.51.56.57-3.51,3.51.56.56-3.51,4.56.73,3.25,2.51,11-10.46A3,3,0,0,0,359,477.82Zm-6,2.82-5.38,5.12-10.14-8.18,6.61-6.29a1.15,1.15,0,0,1,1.62,0l.65.68a2.61,2.61,0,0,0-.09,3.69l2.43,2.56a2.61,2.61,0,0,0,3.69.09l.65.68a1.15,1.15,0,0,1,0,1.63Z"/><path class="cls-4" d="M346.85,205.83h0a11.68,11.68,0,0,1-11.54-10h-2.68v-2.11h-9v2.11H309.36v15.23h14.22v35.77a2.94,2.94,0,0,0,2.94,2.94h3.18a2.94,2.94,0,0,0,2.94-2.94V211.06h14.22Z"/><polygon class="cls-3" points="335.99 135.51 327.53 127.05 324.92 129.66 327.16 131.9 308.15 150.91 304.73 151.23 300.59 158.47 304.57 162.45 311.88 158.23 312.13 154.89 331.13 135.88 333.37 138.12 335.99 135.51"/><path class="cls-3" d="M343.55,108,327,124.57,338.47,136l16.84-16.84a3.25,3.25,0,0,0,0-4.6L348.75,108A3.68,3.68,0,0,0,343.55,108Z"/><rect class="cls-1" x="190.35" y="444.02" width="95.15" height="89.47"/><polygon class="cls-2" points="260.6 471.12 285.5 499.68 285.5 533.49 232.79 533.49 209.44 518.42 215.87 514.04 216.17 510.82 235.86 490.69 238.12 492.92 239.87 491.73 232.73 483.76 234.76 482.09 260.6 471.12"/><polygon class="cls-3" points="240.84 491.49 232.38 483.03 229.76 485.64 232.01 487.88 213 506.89 209.58 507.21 205.44 514.45 209.41 518.43 216.73 514.21 216.98 510.87 235.98 491.86 238.22 494.1 240.84 491.49"/><path class="cls-3" d="M248.4,464l-16.54,16.54L243.31,492l16.84-16.84a3.25,3.25,0,0,0,0-4.6L253.6,464A3.68,3.68,0,0,0,248.4,464Z"/><polyline class="cls-2" points="243.41 16.97 285.45 55.62 285.47 89.47 237.32 89.47 229.47 71.5 234.11 71.62 237.92 69.6 238.59 52.52 236.01 52.41 229.31 53.06 229.31 49.97 229.52 30.28 243.38 16.96"/><polyline class="cls-2" points="339.66 375.69 380.67 410.81 380.67 443.94 338.47 443.94 330.62 426.08 330.54 401.82 331.11 395.43 327.33 391.38 325.94 375.85"/><polyline class="cls-7" points="255.64 206.06 285.5 241.04 285.5 264.6 241.32 264.68 215.15 247.79 240.65 223.55 245.29 220.22 249.57 214.99 253.38 211.9"/><path class="cls-3" d="M229.92,35a4.34,4.34,0,1,1,8.69,0v13.7h5.63a2.93,2.93,0,0,0,2.91-3.27l-3.28-28H224.66l-3.28,28a2.92,2.92,0,0,0,2.9,3.26h5.64Z"/><path class="cls-3" d="M236.87,35a2.61,2.61,0,1,0-5.21,0V52.5h-2.59V70A2.92,2.92,0,0,0,232,73h4.55A2.92,2.92,0,0,0,239.46,70V52.5h-2.59Z"/><path class="cls-3" d="M327.31,381.29h13.94v-1.47a6.19,6.19,0,0,0-6.19-6.19H317.92v7.66H320l.75.75a.76.76,0,0,1,0,1.07l-.45.45a.76.76,0,0,0,0,1.07l.45.45a.76.76,0,0,1,0,1.07l-.45.45a.76.76,0,0,0,0,1.07l.45.45a.76.76,0,0,1,0,1.07l-.47.47a.76.76,0,0,0,0,1c.47.52.94,1.09.94,1.09h-3.29V394h-2.84v3.24h2.84v2.21h2l.85.85a.76.76,0,0,1,0,1.07l-.56.56a.3.3,0,0,0,.21.51h6.88v-3h3.24v27.12a3,3,0,0,0,3,3h2.21a3,3,0,0,0,3-3V399.47h2.48v-7.66h-2.48v-3h-8.23v3h-3.24Z"/><path class="cls-1" d="M338.82,38.69l4.47-5.17L338,17.13h-5.3V22a4.37,4.37,0,0,1,0,8.7V33h-.9V30.7a4.37,4.37,0,0,1,0-8.71V17.13h-5.3l-5.3,16.39,4.47,5.17A42.09,42.09,0,0,0,314.28,68a4.79,4.79,0,1,0,9.59,0,32.69,32.69,0,0,1,8.36-22.32A32.69,32.69,0,0,1,340.59,68a4.79,4.79,0,1,0,9.59,0A42.09,42.09,0,0,0,338.82,38.69Z"/><path class="cls-5" d="M354.7,295.12a1.9,1.9,0,0,0-2,.43l-6.23,6.29-9.08-9,6.27-6.33a1.9,1.9,0,0,0-1.28-3.23,14,14,0,0,0-13.79,18.46l-27,27.24a4.11,4.11,0,0,0,0,5.81l3.24,3.21a4.1,4.1,0,0,0,5.81,0l27-27.26a14,14,0,0,0,18.26-13.91A1.9,1.9,0,0,0,354.7,295.12ZM309.4,333.6a2.44,2.44,0,1,1,0-3.45A2.44,2.44,0,0,1,309.4,333.6Z"/><path class="cls-1" d="M260.77,212.54l-5.47-6.85-14.74,11.76,1.24,1.55-11.88,9.48-.89-1.12-16,12.76a3.23,3.23,0,0,0-.51,4.54l2.18,2.73a3.23,3.23,0,0,0,4.54.51l16-12.76-.89-1.12,11.93-9.52a2.24,2.24,0,0,0,3,.17l3.05-2.43,1.75,2.2,5.09-4.06-1.75-2.2,3-2.43A2.27,2.27,0,0,0,260.77,212.54Z"/><path class="cls-1" d="M240.57,215l12.37-9.87-9.18-11.51a2.27,2.27,0,0,0-3.19-.36l-8.82,7a2.27,2.27,0,0,0-.36,3.19Zm3.62-15.76,4.47,5.6L247.24,206l-4.47-5.61Zm-2.51-3.15,1.39,1.74L241.65,199l-1.39-1.74Z"/><path class="cls-1" d="M247.44,397.17,243,373.81h-2.88v19.36h-3.76V373.81h-2.88l-4.39,23.36,3.69,4.28a34.83,34.83,0,0,0-9.4,24.23,4,4,0,0,0,7.93,0,27,27,0,0,1,6.79-18.32h0s3.66-3.94,6.14-6.55C245.39,399.66,247.44,397.17,247.44,397.17Zm-9.19,4.92a1.42,1.42,0,1,1,1.42-1.43A1.42,1.42,0,0,1,238.25,402.09Z"/><path class="cls-1" d="M244.68,402.51l-5.43,5.85a27,27,0,0,1,6,17.32,4,4,0,1,0,7.93,0A34.79,34.79,0,0,0,244.68,402.51Z"/><path class="cls-4" d="M264.54,299.5,253,284.26a3.4,3.4,0,0,0-4.76-.66L232,295.9l1.88,1.91-14.64,11.05a20.62,20.62,0,0,0-5.67,26.28l-1,.73,2,2.68,34.09-25.72,1.65,1.68,13.52-10.25A3.39,3.39,0,0,0,264.54,299.5Zm-44.66,30.87a12.83,12.83,0,0,1,4-15.29l15.48-11.68,6.93,7Zm37.65-28.49-6.61,5-10.25-10.37,8.14-6.17a1.29,1.29,0,0,1,1.8.25l.63.83a2.91,2.91,0,0,0-.56,4.08l2.38,3.15a2.88,2.88,0,0,0,1.93,1.13,2.91,2.91,0,0,0,2.16-.57l.63.83a1.29,1.29,0,0,1-.25,1.8Z"/><path class="cls-5" d="M150,231.33a12.4,12.4,0,0,0-6.27-10,5.09,5.09,0,0,0,.1-.95,5.68,5.68,0,0,0-3.24-5.11l0-20.59a2.14,2.14,0,0,0-2.14-2.14h-.66a2.14,2.14,0,0,0-2.14,2.14l0,20.59a5.69,5.69,0,0,0-3.23,5.12,5,5,0,0,0,.1.95,12.39,12.39,0,0,0-6.25,10c-.26,3-1.28,10.13-1.87,14.13a2.5,2.5,0,0,0,2.47,2.86l22.55,0a2.5,2.5,0,0,0,2.47-2.86C151.33,241.45,150.3,234.31,150,231.33ZM145.18,242l-.86-6-.85,6h-4.1l-1.19-13.38L137,242h-4.1l-.86-6-.85,6h-2.77c.52-3.82,1.38-10.17,1.4-10.36,1-10.95,15.72-11,16.72,0,0,.19.89,6.54,1.42,10.36Z"/><rect class="cls-5" x="190.33" y="531.11" width="95.15" height="91.37"/><rect class="cls-1" x="285.48" y="531.11" width="95.18" height="91.37"/><rect class="cls-3" x="190.33" y="622.49" width="95.15" height="89.47"/><rect class="cls-4" x="285.48" y="622.49" width="95.18" height="89.47"/><polyline class="cls-6" points="330.54 640.73 380.67 686.73 380.67 711.48 334.19 711.48 314.83 693.4 319.12 678.64 321.5 670.39 328.32 667.7 330.54 640.73"/><polygon class="cls-7" points="255.26 640.57 285.49 683.93 285.49 711.96 239.16 711.96 231.35 696.25 238.97 679.49 236.35 677.7 235.37 668.87 235.87 666.68 212.43 661.77 213.27 649.43 255.15 656.38 255.26 640.57"/><polyline class="cls-2" points="221.42 603.63 220.1 606.64 217.52 606.65 217.43 605.53 213.56 605.59 211.36 606.63 237.05 622.37 285.46 622.48 285.4 609.72 255.74 558.83 255.58 561.25 254.87 581.64 244.16 590.05 233.13 589.49 225.88 589.71 225.9 593.71 231.11 598.45 230.99 602.14 220.1 606.64"/><polyline class="cls-2" points="350.92 559.43 380.65 588.64 380.67 622.49 342.75 622.49 328.87 605.51 334.82 579.46 335.39 572.93 331.61 568.79 331.65 561.81"/><path class="cls-4" d="M241.62,593.71H225.9v-7.19h5.41v-7.77h7.19v7.77h3.11a9.29,9.29,0,0,0,9.28-9.28v-10a9.29,9.29,0,0,0-9.28-9.28H225.9V550.8h15.71a16.49,16.49,0,0,1,16.47,16.47v10A16.49,16.49,0,0,1,241.62,593.71Z"/><polygon class="cls-4" points="217.84 598.88 217.84 600.96 220.1 600.96 220.1 598.88 231.31 598.88 231.31 596.43 238.51 596.43 238.51 598.88 249.72 598.88 249.72 600.96 256.17 600.96 256.17 598.88 262.62 598.88 262.62 606.64 256.17 606.64 256.17 604.56 249.72 604.56 249.72 606.64 220.1 606.64 220.1 604.56 217.84 604.56 217.84 606.64 211.4 606.64 211.4 598.88 217.84 598.88"/><path class="cls-4" d="M238.43,573.27a2.55,2.55,0,0,1,2.54,2.55v1H228.89v-1a2.55,2.55,0,0,1,2.54-2.55Z"/><path class="cls-1" d="M255.15,646.3v-6H215.37v6H210v17.9l23.21,3.73v9.9h-2.1v18.28h8.43V677.83h-2.34V664.72L214,661V650.3h1.41v6.05h39.78V650.3h1.6v-4Zm-2.07,8.76s-.76-.27-1.35-2.9c-.52-2.33-3-1.77-4.19-1.19-.86.41-2.59,1.71-2.59-1.55s-2.13-1.13-3.64-2.37-.71-2.47-1.38-3c-1.38-1.17-5.12-1.69-5.12-1.69h18.27Z"/><path class="cls-3" d="M352.6,565.35a11.52,11.52,0,0,0-11.52-11.52H322.89v1.92h-1.31v-4.52h-7.72v18.15h7.72v-4.52h1.31v1.92h5.56v37.28a3.1,3.1,0,0,0,3.1,3.1h3.35a3.1,3.1,0,0,0,3.1-3.1V566.78H352.6Z"/><path class="cls-5" d="M340.37,678.2a12.4,12.4,0,0,0-6.27-10,5.09,5.09,0,0,0,.1-.95A5.68,5.68,0,0,0,331,662.1l0-20.59a2.14,2.14,0,0,0-2.14-2.14h-.66a2.14,2.14,0,0,0-2.14,2.14l0,20.59a5.69,5.69,0,0,0-3.23,5.12,5,5,0,0,0,.1.95,12.39,12.39,0,0,0-6.25,10c-.26,3-1.28,10.13-1.87,14.13a2.5,2.5,0,0,0,2.47,2.86l22.55,0a2.5,2.5,0,0,0,2.47-2.86C341.67,688.32,340.63,681.19,340.37,678.2Zm-4.86,10.67-.86-6-.85,6h-4.1l-1.19-13.38-1.17,13.38h-4.1l-.86-6-.85,6h-2.77c.52-3.82,1.38-10.17,1.4-10.36,1-10.95,15.72-11,16.72,0,0,.19.89,6.54,1.42,10.36Z"/><rect class="cls-4" x="380.73" width="95.15" height="89.95"/><rect class="cls-5" x="475.88" width="95.18" height="89.95"/><rect class="cls-3" x="380.74" y="622.49" width="95.18" height="89.51"/><rect class="cls-1" x="475.92" y="622.49" width="95.15" height="89.47"/><rect class="cls-5" x="380.73" y="89.47" width="95.15" height="88.04"/><rect class="cls-1" x="475.88" y="89.47" width="95.18" height="88.04"/><rect class="cls-4" x="380.73" y="355.98" width="95.18" height="88.04"/><rect class="cls-1" x="475.91" y="355.98" width="95.15" height="88.04"/><rect class="cls-3" x="380.73" y="177.51" width="95.15" height="87.57"/><rect class="cls-4" x="475.88" y="177.51" width="95.18" height="87.57"/><rect class="cls-3" x="380.73" y="444.02" width="95.18" height="87.57"/><rect class="cls-5" x="475.91" y="444.02" width="95.15" height="87.57"/><rect class="cls-1" x="380.73" y="264.6" width="95.15" height="91.37"/><rect class="cls-3" x="475.88" y="264.6" width="95.18" height="91.37"/><rect class="cls-5" x="380.73" y="531.11" width="95.18" height="91.37"/><rect class="cls-4" x="475.91" y="531.11" width="95.15" height="91.37"/><polyline class="cls-6" points="442.87 376.68 475.91 410.5 475.91 444.02 427.01 443.9 399.17 414.4"/><polyline class="cls-6" points="451.93 22.21 475.86 55.62 475.88 89.47 427.45 89.48 402.62 73.59 416.79 62.27 405.92 48.3 408.3 46.4 435.82 25.71 451.93 22.21"/><polyline class="cls-6" points="545.92 562.36 571.06 587.21 571.06 622.49 508.92 622.49 491.27 600.36 497.85 594.88"/><polyline class="cls-6" points="520.93 193.85 571.06 239.86 571.06 264.6 524.58 264.6 505.23 246.52 509.51 231.77 511.89 223.52 518.71 220.82 520.93 193.85"/><polygon class="cls-2" points="546.16 381.65 571.06 410.21 571.06 444.02 518.35 444.02 495 428.95 501.43 424.57 501.73 421.36 521.42 401.22 523.68 403.45 525.43 402.26 518.29 394.29 520.32 392.62 546.16 381.65"/><polygon class="cls-7" points="445.66 193.69 475.88 236.76 475.88 264.6 429.56 264.6 421.74 249 429.36 232.35 426.74 230.57 425.76 221.8 426.26 219.63 402.83 214.75 403.66 202.5 445.54 209.4 445.66 193.69"/><polygon class="cls-7" points="528.35 283.64 571.06 326.23 571.09 355.98 524.74 355.98 505.15 336.82 511.93 317.19 517.4 312.31 520.94 311.27 527.04 301.96 528.35 283.64"/><polygon class="cls-7" points="433.57 640.57 475.92 684.12 475.95 711.93 429.6 712 414.53 694.35 425.6 666.15 431.9 659.85 433.57 640.57"/><polyline class="cls-2" points="537.27 472.34 571.06 497.26 571.06 531.11 529.85 531.13 514.55 514.93 516.69 483.88 520.38 474.12 533.82 474.6 537.26 472.34"/><polyline class="cls-2" points="411.81 158.66 410.5 161.66 407.91 161.68 407.82 160.56 403.95 160.62 401.76 161.66 427.44 177.39 475.86 177.51 475.8 164.74 446.13 113.86 445.98 116.28 445.26 136.66 434.55 145.07 423.53 144.52 416.27 144.74 416.3 148.73 421.51 153.48 421.39 157.17 410.5 161.67"/><polyline class="cls-2" points="491.9 65.67 522.7 89.46 571.04 89.46 570.98 76.7 529.18 29.35 528.55 50.13 529.74 57.03 518.71 56.47 511.45 56.69"/><polyline class="cls-2" points="405 604.76 427.48 622.49 475.89 622.49 475.91 601.25 451.64 565.62 440.45 553.24 413.33 578.11 408.69 582.75 406.78 587.75"/><path class="cls-5" d="M454.17,388.35,442.38,376a3,3,0,0,0-4.3-.11l-13.19,12.56.83.67-26.6,25.32,7.34,7.71.26-1.62,3.55.34.53-3.28,3.52.51.56-3.46,3.51.57.56-3.51,3.51.56.56-3.52,3.51.57.57-3.51,3.51.56.57-3.51,3.51.56.56-3.51,4.56.73,3.25,2.51,11-10.46A3,3,0,0,0,454.17,388.35Zm-6,2.82-5.38,5.12-10.14-8.18,6.61-6.29a1.15,1.15,0,0,1,1.62,0l.65.68a2.61,2.61,0,0,0-.09,3.69l2.43,2.56a2.61,2.61,0,0,0,3.69.09l.65.68a1.15,1.15,0,0,1,0,1.63Z"/><rect class="cls-4" x="475.92" y="711.96" width="95.18" height="88.04"/><polyline class="cls-6" points="538.07 732.66 571.11 766.48 571.11 800 522.21 799.88 494.37 770.38"/><path class="cls-5" d="M549.37,744.33l-11.79-12.39a3,3,0,0,0-4.3-.11L520.09,744.4l.83.67-26.6,25.32,7.34,7.71.26-1.62,3.55.34.53-3.28,3.52.51.56-3.46,3.51.57.56-3.51,3.51.56.56-3.52,3.51.57.57-3.51,3.51.56.57-3.51,3.51.56.56-3.51,4.56.73,3.25,2.51,11-10.46A3,3,0,0,0,549.37,744.33Zm-6,2.82L538,752.26l-10.14-8.18,6.61-6.29a1.15,1.15,0,0,1,1.62,0l.65.68a2.61,2.61,0,0,0-.09,3.69l2.43,2.56a2.61,2.61,0,0,0,3.69.09l.65.68a1.15,1.15,0,0,1,0,1.63Z"/><path class="cls-4" d="M537.26,472.34h0a11.68,11.68,0,0,1-11.54-10H523v-2.11h-9v2.11H499.77v15.23H514v35.77a2.94,2.94,0,0,0,2.94,2.94h3.18a2.94,2.94,0,0,0,2.94-2.94V477.57h14.22Z"/><polygon class="cls-3" points="526.4 402.02 517.94 393.56 515.33 396.18 517.57 398.42 498.56 417.42 495.14 417.74 491 424.98 494.98 428.96 502.29 424.74 502.54 421.4 521.54 402.39 523.78 404.63 526.4 402.02"/><path class="cls-3" d="M534,374.54l-16.54,16.54,11.45,11.45,16.84-16.84a3.25,3.25,0,0,0,0-4.6l-6.55-6.55A3.68,3.68,0,0,0,534,374.54Z"/><rect class="cls-1" x="380.76" y="711.96" width="95.15" height="88.04"/><polygon class="cls-2" points="451.01 737.63 475.91 766.19 475.91 800 423.19 800 399.84 784.93 406.28 780.55 406.57 777.34 426.27 757.2 428.53 759.43 430.28 758.24 423.14 750.27 425.17 748.6 451.01 737.63"/><polygon class="cls-3" points="431.25 758 422.79 749.54 420.17 752.15 422.42 754.39 403.41 773.4 399.99 773.72 395.85 780.96 399.82 784.94 407.14 780.72 407.39 777.38 426.39 758.37 428.63 760.61 431.25 758"/><path class="cls-3" d="M438.81,730.52l-16.54,16.54,11.45,11.45,16.84-16.84a3.25,3.25,0,0,0,0-4.6L444,730.52A3.68,3.68,0,0,0,438.81,730.52Z"/><polyline class="cls-2" points="433.81 283.49 475.86 322.13 475.88 355.98 427.73 355.98 419.88 338.01 424.52 338.13 428.33 336.11 429 319.04 426.41 318.92 419.72 319.57 419.72 316.48 419.93 296.79 433.79 283.47"/><polyline class="cls-2" points="530.07 642.24 571.08 678.11 571.08 711.96 528.88 711.96 521.03 693.71 520.95 668.93 521.52 662.4 517.73 658.26 516.35 642.39"/><polyline class="cls-2" points="541.32 114.46 571.04 143.66 571.06 177.51 533.15 177.51 519.27 160.54 525.21 134.48 525.79 127.96 522 123.81 522.04 116.83"/><polyline class="cls-7" points="446.05 472.58 475.91 507.56 475.91 531.11 431.73 531.19 405.55 514.3 431.05 490.06 435.69 486.73 439.98 481.5 443.79 478.41"/><path class="cls-3" d="M420.33,301.52a4.34,4.34,0,1,1,8.69,0v13.7h5.63a2.93,2.93,0,0,0,2.91-3.27l-3.28-28H415.07l-3.28,28a2.92,2.92,0,0,0,2.9,3.26h5.64Z"/><path class="cls-3" d="M427.28,301.52a2.61,2.61,0,1,0-5.21,0V319h-2.59v17.54a2.92,2.92,0,0,0,2.92,2.92h4.55a2.92,2.92,0,0,0,2.92-2.92V319h-2.59Z"/><path class="cls-4" d="M432,148.73H416.3v-7.19h5.41v-7.77h7.19v7.77H432a9.29,9.29,0,0,0,9.28-9.28v-10A9.29,9.29,0,0,0,432,113H416.3v-7.19H432a16.49,16.49,0,0,1,16.47,16.47v10A16.49,16.49,0,0,1,432,148.73Z"/><polygon class="cls-4" points="408.24 153.91 408.24 155.99 410.5 155.99 410.5 153.91 421.71 153.91 421.71 151.46 428.9 151.46 428.9 153.91 440.12 153.91 440.12 155.99 446.56 155.99 446.56 153.91 453.01 153.91 453.01 161.67 446.56 161.67 446.56 159.59 440.12 159.59 440.12 161.67 410.5 161.67 410.5 159.59 408.24 159.59 408.24 161.67 401.79 161.67 401.79 153.91 408.24 153.91"/><path class="cls-4" d="M428.83,128.3a2.55,2.55,0,0,1,2.54,2.55v1H419.29v-1a2.55,2.55,0,0,1,2.54-2.55Z"/><path class="cls-3" d="M517.71,647.8h13.94v-1.47a6.19,6.19,0,0,0-6.19-6.19H508.33v7.66h2.1l.75.75a.76.76,0,0,1,0,1.07l-.45.45a.76.76,0,0,0,0,1.07l.45.45a.76.76,0,0,1,0,1.07l-.45.45a.76.76,0,0,0,0,1.07l.45.45a.76.76,0,0,1,0,1.07l-.47.47a.76.76,0,0,0,0,1c.47.52.94,1.09.94,1.09h-3.29v2.21h-2.84v3.24h2.84V666h2l.85.85a.76.76,0,0,1,0,1.07l-.56.56a.3.3,0,0,0,.21.51h6.88v-3H521V693.1a3,3,0,0,0,3,3h2.21a3,3,0,0,0,3-3V666h2.48v-7.66h-2.48v-3H521v3h-3.24Z"/><path class="cls-5" d="M452.06,36.46a8.93,8.93,0,0,0,1.41-12.55l-2.23-2.79a8.93,8.93,0,0,0-12.55-1.41L406.2,45.65,419.56,62.4Zm-7.75-3.58a2.36,2.36,0,0,1-.37,3.31L436.72,42a2.36,2.36,0,0,1-3.31-.37l-1.2-1.5-13.15,10.5-1.46-1.82,13.16-10.5-1.2-1.5a2.35,2.35,0,0,1,.37-3.31l7.21-5.76a2.36,2.36,0,0,1,3.31.37l1.2,1.5L446.18,26l1.45,1.82-4.52,3.61Z"/><path class="cls-5" d="M419.49,32.42l-.64-.81a2.36,2.36,0,0,0-3.73.06l-3,4-4.6,2a2.36,2.36,0,0,0-.88,3.62l.64.81Z"/><polygon class="cls-5" points="401.14 52.05 402.62 73.55 416.81 62.24 405.74 48.37 401.14 52.05"/><path class="cls-1" d="M445.54,199.42v-6H405.77v6h-5.4v17.9l23.21,3.73V231h-2.1v18.28h8.43V231h-2.34V217.84l-23.22-3.73V203.42h1.41v6.05h39.78v-6.05h1.6v-4Zm-2.07,8.76s-.76-.27-1.35-2.9c-.52-2.33-3-1.77-4.19-1.19-.86.41-2.59,1.71-2.59-1.55s-2.13-1.13-3.64-2.37-.71-2.47-1.38-3c-1.38-1.17-5.12-1.69-5.12-1.69h18.27Z"/><path class="cls-1" d="M529.23,305.2l4.47-5.17-5.3-16.39h-5.3v4.87a4.37,4.37,0,0,1,0,8.7v2.3h-.9v-2.3a4.37,4.37,0,0,1,0-8.71v-4.86h-5.3L511.58,300,516,305.2a42.09,42.09,0,0,0-11.36,29.29,4.79,4.79,0,1,0,9.59,0,32.69,32.69,0,0,1,8.36-22.32A32.69,32.69,0,0,1,531,334.49a4.79,4.79,0,1,0,9.59,0A42.09,42.09,0,0,0,529.23,305.2Z"/><path class="cls-5" d="M545.11,561.63a1.9,1.9,0,0,0-2,.43l-6.23,6.29-9.08-9L534,553a1.9,1.9,0,0,0-1.28-3.23A14,14,0,0,0,519,568.27l-27,27.24a4.11,4.11,0,0,0,0,5.81l3.24,3.21a4.1,4.1,0,0,0,5.81,0l27-27.26a14,14,0,0,0,18.26-13.91A1.9,1.9,0,0,0,545.11,561.63Zm-45.3,38.47a2.44,2.44,0,1,1,0-3.45A2.44,2.44,0,0,1,499.81,600.11Z"/><path class="cls-3" d="M543,120.37a11.52,11.52,0,0,0-11.52-11.52H513.28v1.92H512v-4.52h-7.72v18.15H512v-4.52h1.31v1.92h5.56V159.1a3.1,3.1,0,0,0,3.1,3.1h3.35a3.1,3.1,0,0,0,3.1-3.1V121.81H543Z"/><path class="cls-4" d="M544,57.78v1.47h-9.35V42.68h0a21.35,21.35,0,0,0-42.66,0h0V65.53h42.76V62.19H544v7.88h1.26a2.35,2.35,0,0,0,2.35-2.35v-7.6a2.35,2.35,0,0,0-2.35-2.35ZM513.28,55a11.39,11.39,0,1,1,11.38-11.38A11.39,11.39,0,0,1,513.28,55Z"/><path class="cls-4" d="M511.25,42.89v0a2.51,2.51,0,0,0,1.92-2.43c0-1.44-1.24-2.61-3.48-2.61a6.59,6.59,0,0,0-3.24.79l.5,1.77a4.75,4.75,0,0,1,2.19-.63c1,0,1.55.47,1.55,1.09,0,.89-1,1.19-1.87,1.21h-1v1.76h1c1.08,0,2.11.47,2.11,1.5,0,.79-.65,1.4-1.92,1.4a5.82,5.82,0,0,1-2.44-.64l-.5,1.84a6.17,6.17,0,0,0,3.11.74c2.66,0,4.29-1.36,4.29-3.21A2.6,2.6,0,0,0,511.25,42.89Z"/><path class="cls-4" d="M520,42.94a1.85,1.85,0,0,0-1,.25,2.29,2.29,0,0,0-.67.62h0a1.47,1.47,0,0,0-1.42-.88,1.8,1.8,0,0,0-1.57.82h0l-.07-.7h-1.35c0,.45,0,1,0,1.65v3.52h1.57v-3a1,1,0,0,1,.06-.4.82.82,0,0,1,.75-.58c.51,0,.74.45.74,1.1v2.9h1.57v-3a1.32,1.32,0,0,1,.07-.41.79.79,0,0,1,.74-.56c.52,0,.76.44.76,1.19v2.81h1.57v-3C521.73,43.64,521,42.94,520,42.94Z"/><path class="cls-1" d="M451.17,479l-5.47-6.85L431,484l1.24,1.55L420.32,495l-.89-1.12-16,12.76a3.23,3.23,0,0,0-.51,4.54l2.18,2.73a3.23,3.23,0,0,0,4.54.51l16-12.76-.89-1.12L436.66,491a2.24,2.24,0,0,0,3,.17l3.05-2.43,1.75,2.2,5.09-4.06-1.75-2.2,3-2.43A2.27,2.27,0,0,0,451.17,479Z"/><path class="cls-1" d="M431,481.55l12.37-9.87-9.18-11.51a2.27,2.27,0,0,0-3.19-.36l-8.82,7a2.27,2.27,0,0,0-.36,3.19Zm3.62-15.76,4.47,5.6-1.43,1.14-4.47-5.61Zm-2.51-3.15,1.39,1.74-1.43,1.14-1.39-1.74Z"/><rect class="cls-3" x="666.21" y="711.96" width="95.18" height="87.57"/><rect class="cls-5" x="571.06" y="711.96" width="95.15" height="87.57"/><polyline class="cls-2" points="632.42 740.27 666.21 765.2 666.21 799.05 625 799.07 609.7 782.87 611.84 751.81 615.53 742.06 628.97 742.53 632.41 740.27"/><path class="cls-4" d="M632.41,740.27h0a11.68,11.68,0,0,1-11.54-10h-2.68v-2.11h-9v2.11H594.92v15.23h14.22v35.77a2.94,2.94,0,0,0,2.94,2.94h3.18a2.94,2.94,0,0,0,2.94-2.94V745.51h14.22Z"/><polyline class="cls-7" points="731.68 740.51 761.54 775.49 761.54 799.05 717.37 799.13 691.19 782.23 716.69 758 721.33 754.67 725.61 749.43 729.42 746.34"/><path class="cls-1" d="M736.81,747l-5.47-6.85L716.6,751.89l1.24,1.55L706,762.92l-.89-1.12-16,12.76a3.23,3.23,0,0,0-.51,4.54l2.18,2.73a3.23,3.23,0,0,0,4.54.51l16-12.76-.89-1.12,11.93-9.52a2.24,2.24,0,0,0,3,.17l3.05-2.43,1.75,2.2,5.09-4.06-1.75-2.2,3-2.43A2.27,2.27,0,0,0,736.81,747Z"/><path class="cls-1" d="M716.62,749.48,729,739.61,719.8,728.1a2.27,2.27,0,0,0-3.19-.36l-8.82,7a2.27,2.27,0,0,0-.36,3.19Zm3.62-15.76,4.47,5.6-1.43,1.14-4.47-5.61Zm-2.51-3.15,1.39,1.74-1.43,1.14-1.39-1.74Z"/><path class="cls-1" d="M437.84,663.68l-4.39-23.36h-2.88v19.36h-3.76V640.32h-2.88l-4.39,23.36,3.69,4.28a34.83,34.83,0,0,0-9.4,24.23,4,4,0,1,0,7.93,0,27,27,0,0,1,6.79-18.32h0s3.66-3.94,6.14-6.55C435.79,666.17,437.84,663.68,437.84,663.68Zm-9.19,4.92a1.42,1.42,0,1,1,1.42-1.43A1.42,1.42,0,0,1,428.66,668.6Z"/><path class="cls-1" d="M435.09,669l-5.43,5.85a27,27,0,0,1,6,17.32,4,4,0,1,0,7.93,0A34.79,34.79,0,0,0,435.09,669Z"/><path class="cls-4" d="M454.94,566l-11.55-15.24a3.4,3.4,0,0,0-4.76-.66l-16.23,12.3,1.88,1.91-14.64,11.05A20.62,20.62,0,0,0,404,601.64l-1,.73,2,2.68,34.09-25.72,1.65,1.68,13.52-10.25A3.39,3.39,0,0,0,454.94,566Zm-44.66,30.87a12.83,12.83,0,0,1,4-15.29l15.48-11.68,6.93,7Zm37.65-28.49-6.61,5L431.08,563l8.14-6.17a1.29,1.29,0,0,1,1.8.25l.63.83a2.91,2.91,0,0,0-.56,4.08l2.38,3.15a2.88,2.88,0,0,0,1.93,1.13,2.91,2.91,0,0,0,2.16-.57l.63.83a1.29,1.29,0,0,1-.25,1.8Z"/><rect class="cls-3" x="571.06" y="355.98" width="95.18" height="88.05"/><rect class="cls-1" x="666.24" y="355.98" width="95.15" height="88.01"/><rect class="cls-4" x="571.05" y="89.47" width="95.18" height="88.04"/><rect class="cls-1" x="666.23" y="89.47" width="95.15" height="88.04"/><rect class="cls-3" x="571.05" y="177.51" width="95.18" height="87.57"/><rect class="cls-5" x="666.23" y="177.51" width="95.15" height="87.57"/><rect class="cls-1" x="571.05" width="95.15" height="89.47"/><rect class="cls-3" x="666.2" width="95.18" height="89.47"/><rect class="cls-5" x="571.05" y="264.6" width="95.18" height="91.37"/><rect class="cls-4" x="666.23" y="264.6" width="95.15" height="91.37"/><polyline class="cls-6" points="633.19 110.17 666.23 143.99 666.23 177.51 617.33 177.39 589.49 147.88"/><polyline class="cls-6" points="736.24 295.85 761.38 320.7 761.38 355.98 699.24 355.98 681.59 333.85 688.17 328.37"/><polygon class="cls-2" points="736.48 115.14 761.38 143.7 761.38 177.51 708.66 177.51 685.31 162.44 691.75 158.06 692.05 154.84 711.74 134.71 714 136.94 715.75 135.75 708.61 127.78 710.64 126.11 736.48 115.14"/><polygon class="cls-7" points="718.67 17.13 761.38 59.72 761.41 89.47 715.06 89.47 695.47 70.31 702.25 50.68 707.72 45.8 711.26 44.76 717.36 35.45 718.67 17.13"/><polygon class="cls-7" points="623.89 374.06 666.24 416.69 666.27 443.91 619.92 443.98 604.85 426.71 615.91 399.1 622.22 392.93 623.89 374.06"/><polyline class="cls-2" points="727.59 205.83 761.38 230.75 761.38 264.6 720.16 264.62 704.87 248.42 707.01 217.37 710.7 207.61 724.14 208.09 727.58 205.82"/><polyline class="cls-2" points="595.32 338.25 617.8 355.98 666.21 355.98 666.23 334.74 641.96 299.11 630.77 286.73 603.65 311.6 599.01 316.24 597.1 321.23"/><path class="cls-5" d="M644.49,121.84,632.7,109.45a3,3,0,0,0-4.3-.11l-13.19,12.56.83.67-26.6,25.32,7.34,7.71L597,154l3.55.34.53-3.28,3.52.51.56-3.46,3.51.57.56-3.51,3.51.56.56-3.52,3.51.57.57-3.51,3.51.56.57-3.51,3.51.56.56-3.51,4.56.73,3.25,2.51,11-10.46A3,3,0,0,0,644.49,121.84Zm-6,2.82-5.38,5.12L623,121.59l6.61-6.29a1.15,1.15,0,0,1,1.62,0l.65.68a2.61,2.61,0,0,0-.09,3.69l2.43,2.56a2.61,2.61,0,0,0,3.69.09l.65.68a1.15,1.15,0,0,1,0,1.63Z"/><rect class="cls-4" x="666.24" y="444.02" width="95.18" height="89.47"/><polyline class="cls-6" points="728.39 466.15 761.42 499.97 761.42 533.49 712.52 533.37 684.68 503.86"/><path class="cls-5" d="M739.69,477.82,727.9,465.43a3,3,0,0,0-4.3-.11l-13.19,12.56.83.67-26.6,25.32,7.34,7.71.26-1.62,3.55.34.53-3.28,3.52.51.56-3.46,3.51.57.56-3.51,3.51.56.56-3.52,3.51.57.57-3.51,3.51.56.57-3.51,3.51.56.56-3.51,4.56.73,3.25,2.51,11-10.46A3,3,0,0,0,739.69,477.82Zm-6,2.82-5.38,5.12-10.14-8.18,6.61-6.29a1.15,1.15,0,0,1,1.62,0l.65.68a2.61,2.61,0,0,0-.09,3.69l2.43,2.56a2.61,2.61,0,0,0,3.69.09l.65.68a1.15,1.15,0,0,1,0,1.63Z"/><path class="cls-4" d="M727.58,205.83h0a11.68,11.68,0,0,1-11.54-10h-2.68v-2.11h-9v2.11H690.09v15.23h14.22v35.77a2.94,2.94,0,0,0,2.94,2.94h3.18a2.94,2.94,0,0,0,2.94-2.94V211.06h14.22Z"/><polygon class="cls-3" points="716.72 135.51 708.26 127.05 705.64 129.66 707.89 131.9 688.88 150.91 685.46 151.23 681.32 158.47 685.29 162.45 692.61 158.23 692.86 154.89 711.86 135.88 714.1 138.12 716.72 135.51"/><path class="cls-3" d="M724.28,108l-16.54,16.54L719.19,136,736,119.19a3.25,3.25,0,0,0,0-4.6L729.48,108A3.68,3.68,0,0,0,724.28,108Z"/><rect class="cls-1" x="571.08" y="444.02" width="95.15" height="89.47"/><polygon class="cls-2" points="641.33 471.12 666.23 499.68 666.23 533.49 613.51 533.49 590.16 518.42 596.6 514.04 596.89 510.82 616.59 490.69 618.85 492.92 620.6 491.73 613.46 483.76 615.48 482.09 641.33 471.12"/><polygon class="cls-3" points="621.57 491.49 613.11 483.03 610.49 485.64 612.73 487.88 593.73 506.89 590.31 507.21 586.16 514.45 590.14 518.43 597.46 514.21 597.71 510.87 616.71 491.86 618.95 494.1 621.57 491.49"/><path class="cls-3" d="M629.13,464l-16.54,16.54L624,492l16.84-16.84a3.25,3.25,0,0,0,0-4.6L634.33,464A3.68,3.68,0,0,0,629.13,464Z"/><polyline class="cls-2" points="624.13 16.97 666.18 55.62 666.2 89.47 618.05 89.47 610.2 71.5 614.84 71.62 618.65 69.6 619.32 52.52 616.73 52.41 610.04 53.06 610.04 49.97 610.25 30.28 624.11 16.96"/><polyline class="cls-2" points="720.39 375.69 761.39 410.81 761.39 443.94 719.2 443.94 711.35 426.08 711.26 401.82 711.84 395.43 708.05 391.38 706.66 375.85"/><polyline class="cls-7" points="636.36 206.06 666.23 241.04 666.23 264.6 622.05 264.68 595.87 247.79 621.37 223.55 626.01 220.22 630.3 214.99 634.1 211.9"/><path class="cls-3" d="M610.65,35a4.34,4.34,0,1,1,8.69,0v13.7H625a2.93,2.93,0,0,0,2.91-3.27l-3.28-28H605.38l-3.28,28a2.92,2.92,0,0,0,2.9,3.26h5.64Z"/><path class="cls-3" d="M617.6,35a2.61,2.61,0,1,0-5.21,0V52.5h-2.59V70A2.92,2.92,0,0,0,612.72,73h4.55A2.92,2.92,0,0,0,620.19,70V52.5H617.6Z"/><path class="cls-3" d="M708,381.29H722v-1.47a6.19,6.19,0,0,0-6.19-6.19H698.65v7.66h2.1l.75.75a.76.76,0,0,1,0,1.07l-.45.45a.76.76,0,0,0,0,1.07l.45.45a.76.76,0,0,1,0,1.07l-.45.45a.76.76,0,0,0,0,1.07l.45.45a.76.76,0,0,1,0,1.07l-.47.47a.76.76,0,0,0,0,1c.47.52.94,1.09.94,1.09h-3.29V394h-2.84v3.24h2.84v2.21h2l.85.85a.76.76,0,0,1,0,1.07l-.56.56a.3.3,0,0,0,.21.51H708v-3h3.24v27.12a3,3,0,0,0,3,3h2.21a3,3,0,0,0,3-3V399.47H722v-7.66H719.5v-3h-8.23v3H708Z"/><path class="cls-1" d="M719.55,38.69,724,33.52l-5.3-16.39h-5.3V22a4.37,4.37,0,0,1,0,8.7V33h-.9V30.7a4.37,4.37,0,0,1,0-8.71V17.13h-5.3l-5.3,16.39,4.47,5.17A42.09,42.09,0,0,0,695,68a4.79,4.79,0,1,0,9.59,0A32.69,32.69,0,0,1,713,45.66,32.69,32.69,0,0,1,721.32,68a4.79,4.79,0,1,0,9.59,0A42.09,42.09,0,0,0,719.55,38.69Z"/><path class="cls-5" d="M735.43,295.12a1.9,1.9,0,0,0-2,.43l-6.23,6.29-9.08-9,6.27-6.33a1.9,1.9,0,0,0-1.28-3.23,14,14,0,0,0-13.79,18.46l-27,27.24a4.11,4.11,0,0,0,0,5.81l3.24,3.21a4.1,4.1,0,0,0,5.81,0l27-27.26a14,14,0,0,0,18.26-13.91A1.9,1.9,0,0,0,735.43,295.12Zm-45.3,38.47a2.44,2.44,0,1,1,0-3.45A2.44,2.44,0,0,1,690.13,333.6Z"/><path class="cls-1" d="M641.49,212.54,636,205.68l-14.74,11.76,1.24,1.55-11.88,9.48-.89-1.12-16,12.76a3.23,3.23,0,0,0-.51,4.54l2.18,2.73a3.23,3.23,0,0,0,4.54.51l16-12.76-.89-1.12L627,224.49a2.24,2.24,0,0,0,3,.17l3.05-2.43,1.75,2.2,5.09-4.06-1.75-2.2,3-2.43A2.27,2.27,0,0,0,641.49,212.54Z"/><path class="cls-1" d="M621.3,215l12.37-9.87-9.18-11.51a2.27,2.27,0,0,0-3.19-.36l-8.82,7a2.27,2.27,0,0,0-.36,3.19Zm3.62-15.76,4.47,5.6L628,206l-4.47-5.61Zm-2.51-3.15,1.39,1.74L622.37,199,621,197.26Z"/><path class="cls-1" d="M628.16,397.17l-4.39-23.36H620.9v19.36h-3.76V373.81h-2.88l-4.39,23.36,3.69,4.28a34.83,34.83,0,0,0-9.4,24.23,4,4,0,1,0,7.93,0,27,27,0,0,1,6.79-18.32h0s3.66-3.94,6.14-6.55C626.11,399.66,628.16,397.17,628.16,397.17ZM619,402.09a1.42,1.42,0,1,1,1.42-1.43A1.42,1.42,0,0,1,619,402.09Z"/><path class="cls-1" d="M625.41,402.51,620,408.36a27,27,0,0,1,6,17.32,4,4,0,1,0,7.93,0A34.79,34.79,0,0,0,625.41,402.51Z"/><path class="cls-4" d="M645.26,299.5l-11.55-15.24a3.4,3.4,0,0,0-4.76-.66l-16.23,12.3,1.88,1.91L600,308.86a20.62,20.62,0,0,0-5.67,26.28l-1,.73,2,2.68,34.09-25.72,1.65,1.68,13.52-10.25A3.39,3.39,0,0,0,645.26,299.5ZM600.6,330.37a12.83,12.83,0,0,1,4-15.29l15.48-11.68,6.93,7Zm37.65-28.49-6.61,5-10.25-10.37,8.14-6.17a1.29,1.29,0,0,1,1.8.25l.63.83a2.91,2.91,0,0,0-.56,4.08l2.38,3.15a2.88,2.88,0,0,0,1.93,1.13,2.91,2.91,0,0,0,2.16-.57l.63.83a1.29,1.29,0,0,1-.25,1.8Z"/><path class="cls-5" d="M530.76,231.33a12.4,12.4,0,0,0-6.27-10,5.09,5.09,0,0,0,.1-.95,5.68,5.68,0,0,0-3.24-5.11l0-20.59a2.14,2.14,0,0,0-2.14-2.14h-.66a2.14,2.14,0,0,0-2.14,2.14l0,20.59a5.69,5.69,0,0,0-3.23,5.12,5,5,0,0,0,.1.95,12.39,12.39,0,0,0-6.25,10c-.26,3-1.28,10.13-1.87,14.13a2.5,2.5,0,0,0,2.47,2.86l22.55,0a2.5,2.5,0,0,0,2.47-2.86C532.06,241.45,531,234.31,530.76,231.33ZM525.91,242l-.86-6-.85,6h-4.1l-1.19-13.38L517.73,242h-4.1l-.86-6-.85,6h-2.77c.52-3.82,1.38-10.17,1.4-10.36,1-10.95,15.72-11,16.72,0,0,.19.89,6.54,1.42,10.36Z"/><rect class="cls-5" x="571.06" y="531.11" width="95.15" height="91.37"/><rect class="cls-1" x="666.21" y="531.11" width="95.18" height="91.37"/><rect class="cls-3" x="571.06" y="622.49" width="95.15" height="89.47"/><rect class="cls-4" x="666.21" y="622.49" width="95.18" height="89.47"/><polyline class="cls-6" points="711.26 640.73 761.39 686.73 761.39 711.48 714.91 711.48 695.56 693.4 699.84 678.64 702.22 670.39 709.04 667.7 711.26 640.73"/><polygon class="cls-7" points="635.99 640.57 666.21 683.93 666.21 711.96 619.89 711.96 612.08 696.25 619.69 679.49 617.07 677.7 616.09 668.87 616.6 666.68 593.16 661.77 593.99 649.43 635.87 656.38 635.99 640.57"/><polyline class="cls-2" points="602.14 603.63 600.83 606.64 598.25 606.65 598.16 605.53 594.29 605.59 592.09 606.63 617.78 622.37 666.19 622.48 666.13 609.72 636.47 558.83 636.31 561.25 635.6 581.64 624.89 590.05 613.86 589.49 606.61 589.71 606.63 593.71 611.84 598.45 611.72 602.14 600.83 606.64"/><polyline class="cls-2" points="731.65 559.43 761.37 588.64 761.39 622.49 723.48 622.49 709.6 605.51 715.55 579.46 716.12 572.93 712.34 568.79 712.38 561.81"/><path class="cls-4" d="M622.34,593.71H606.63v-7.19H612v-7.77h7.19v7.77h3.11a9.29,9.29,0,0,0,9.28-9.28v-10a9.29,9.29,0,0,0-9.28-9.28H606.63V550.8h15.71a16.49,16.49,0,0,1,16.47,16.47v10A16.49,16.49,0,0,1,622.34,593.71Z"/><polygon class="cls-4" points="598.57 598.88 598.57 600.96 600.83 600.96 600.83 598.88 612.04 598.88 612.04 596.43 619.24 596.43 619.24 598.88 630.45 598.88 630.45 600.96 636.9 600.96 636.9 598.88 643.34 598.88 643.34 606.64 636.9 606.64 636.9 604.56 630.45 604.56 630.45 606.64 600.83 606.64 600.83 604.56 598.57 604.56 598.57 606.64 592.12 606.64 592.12 598.88 598.57 598.88"/><path class="cls-4" d="M619.16,573.27a2.55,2.55,0,0,1,2.54,2.55v1H609.62v-1a2.55,2.55,0,0,1,2.54-2.55Z"/><path class="cls-1" d="M635.88,646.3v-6H596.1v6h-5.4v17.9l23.21,3.73v9.9h-2.1v18.28h8.43V677.83h-2.34V664.72L594.69,661V650.3h1.41v6.05h39.78V650.3h1.6v-4Zm-2.07,8.76s-.76-.27-1.35-2.9c-.52-2.33-3-1.77-4.19-1.19-.86.41-2.59,1.71-2.59-1.55s-2.13-1.13-3.64-2.37-.71-2.47-1.38-3c-1.38-1.17-5.12-1.69-5.12-1.69h18.27Z"/><path class="cls-3" d="M733.32,565.35a11.52,11.52,0,0,0-11.52-11.52H703.62v1.92h-1.31v-4.52h-7.72v18.15h7.72v-4.52h1.31v1.92h5.56v37.28a3.1,3.1,0,0,0,3.1,3.1h3.35a3.1,3.1,0,0,0,3.1-3.1V566.78h14.59Z"/><path class="cls-5" d="M721.1,678.2a12.4,12.4,0,0,0-6.27-10,5.09,5.09,0,0,0,.1-.95,5.68,5.68,0,0,0-3.24-5.11l0-20.59a2.14,2.14,0,0,0-2.14-2.14h-.66a2.14,2.14,0,0,0-2.14,2.14l0,20.59a5.69,5.69,0,0,0-3.23,5.12,5,5,0,0,0,.1.95,12.39,12.39,0,0,0-6.25,10c-.26,3-1.28,10.13-1.87,14.13a2.5,2.5,0,0,0,2.47,2.86l22.55,0a2.5,2.5,0,0,0,2.47-2.86C722.39,688.32,721.36,681.19,721.1,678.2Zm-4.86,10.67-.86-6-.85,6h-4.1l-1.19-13.38-1.17,13.38H704l-.86-6-.85,6h-2.77c.52-3.82,1.38-10.17,1.4-10.36,1-10.95,15.72-11,16.72,0,0,.19.89,6.54,1.42,10.36Z"/><rect class="cls-4" x="761.38" width="95.15" height="89.95"/><rect class="cls-5" x="856.53" width="95.18" height="89.95"/><rect class="cls-3" x="761.39" y="622.49" width="95.18" height="89.51"/><rect class="cls-1" x="856.58" y="622.49" width="95.15" height="89.47"/><rect class="cls-5" x="761.38" y="89.47" width="95.15" height="88.04"/><rect class="cls-1" x="856.53" y="89.47" width="95.18" height="88.04"/><rect class="cls-4" x="761.38" y="355.98" width="95.18" height="88.04"/><rect class="cls-1" x="856.56" y="355.98" width="95.15" height="88.04"/><rect class="cls-3" x="761.38" y="177.51" width="95.15" height="87.57"/><rect class="cls-4" x="856.53" y="177.51" width="95.18" height="87.57"/><rect class="cls-3" x="761.38" y="444.02" width="95.18" height="87.57"/><rect class="cls-5" x="856.56" y="444.02" width="95.15" height="87.57"/><rect class="cls-1" x="761.38" y="264.6" width="95.15" height="91.37"/><rect class="cls-3" x="856.53" y="264.6" width="95.18" height="91.37"/><rect class="cls-5" x="761.38" y="531.11" width="95.18" height="91.37"/><rect class="cls-4" x="856.56" y="531.11" width="95.15" height="91.37"/><polyline class="cls-6" points="823.52 376.68 856.56 410.5 856.56 444.02 807.66 443.9 779.82 414.4"/><polyline class="cls-6" points="832.58 22.21 856.51 55.62 856.53 89.47 808.11 89.48 783.27 73.59 797.44 62.27 786.57 48.3 788.95 46.4 816.48 25.71 832.58 22.21"/><polyline class="cls-6" points="926.57 562.36 951.71 587.21 951.71 622.49 889.57 622.49 871.92 600.36 878.5 594.88"/><polyline class="cls-6" points="901.58 193.85 951.71 239.86 951.71 264.6 905.23 264.6 885.88 246.52 890.16 231.77 892.54 223.52 899.36 220.82 901.58 193.85"/><polygon class="cls-2" points="926.82 381.65 951.71 410.21 951.71 444.02 899 444.02 875.65 428.95 882.08 424.57 882.38 421.36 902.07 401.22 904.33 403.45 906.09 402.26 898.95 394.29 900.97 392.62 926.82 381.65"/><polygon class="cls-7" points="826.31 193.69 856.53 236.76 856.53 264.6 810.21 264.6 802.4 249 810.01 232.35 807.39 230.57 806.41 221.8 806.92 219.63 783.48 214.75 784.31 202.5 826.19 209.4 826.31 193.69"/><polygon class="cls-7" points="909 283.64 951.71 326.23 951.74 355.98 905.39 355.98 885.8 336.82 892.58 317.19 898.05 312.31 901.59 311.27 907.69 301.96 909 283.64"/><polygon class="cls-7" points="814.22 640.57 856.58 684.12 856.61 711.93 810.25 712 795.18 694.35 806.25 666.15 812.55 659.85 814.22 640.57"/><polyline class="cls-2" points="917.92 472.34 951.71 497.26 951.71 531.11 910.5 531.13 895.2 514.93 897.34 483.88 901.03 474.12 914.47 474.6 917.91 472.34"/><polyline class="cls-2" points="792.46 158.66 791.15 161.66 788.57 161.68 788.48 160.56 784.61 160.62 782.41 161.66 808.1 177.39 856.51 177.51 856.45 164.74 826.79 113.86 826.63 116.28 825.91 136.66 815.21 145.07 804.18 144.52 796.92 144.74 796.95 148.73 802.16 153.48 802.04 157.17 791.15 161.67"/><polyline class="cls-2" points="872.55 65.67 903.35 89.46 951.69 89.46 951.63 76.7 909.83 29.35 909.2 50.13 910.39 57.03 899.36 56.47 892.11 56.69"/><polyline class="cls-2" points="785.65 604.76 808.13 622.49 856.54 622.49 856.56 601.25 832.29 565.62 821.11 553.24 793.98 578.11 789.34 582.75 787.43 587.75"/><path class="cls-5" d="M834.83,388.35,823,376a3,3,0,0,0-4.3-.11l-13.19,12.56.83.67-26.6,25.32,7.34,7.71.26-1.62,3.55.34.53-3.28,3.52.51.56-3.46,3.51.57.56-3.51,3.51.56.56-3.52,3.51.57.57-3.51,3.51.56.57-3.51,3.51.56.56-3.51,4.56.73,3.25,2.51,11-10.46A3,3,0,0,0,834.83,388.35Zm-6,2.82-5.38,5.12-10.14-8.18,6.61-6.29a1.15,1.15,0,0,1,1.62,0l.65.68a2.61,2.61,0,0,0-.09,3.69l2.43,2.56a2.61,2.61,0,0,0,3.69.09l.65.68a1.15,1.15,0,0,1,0,1.63Z"/><rect class="cls-4" x="856.58" y="711.96" width="95.18" height="88.04"/><polyline class="cls-6" points="918.72 732.66 951.76 766.48 951.76 800 902.86 799.88 875.02 770.38"/><path class="cls-5" d="M930,744.33l-11.79-12.39a3,3,0,0,0-4.3-.11L900.74,744.4l.83.67L875,770.39l7.34,7.71.26-1.62,3.55.34.53-3.28,3.52.51.56-3.46,3.51.57.56-3.51,3.51.56.56-3.52,3.51.57.57-3.51,3.51.56.57-3.51,3.51.56.56-3.51,4.56.73,3.25,2.51,11-10.46A3,3,0,0,0,930,744.33Zm-6,2.82-5.38,5.12-10.14-8.18,6.61-6.29a1.15,1.15,0,0,1,1.62,0l.65.68a2.61,2.61,0,0,0-.09,3.69l2.43,2.56a2.61,2.61,0,0,0,3.69.09l.65.68a1.15,1.15,0,0,1,0,1.63Z"/><path class="cls-4" d="M917.91,472.34h0a11.68,11.68,0,0,1-11.54-10h-2.68v-2.11h-9v2.11H880.42v15.23h14.22v35.77a2.94,2.94,0,0,0,2.94,2.94h3.18a2.94,2.94,0,0,0,2.94-2.94V477.57h14.22Z"/><polygon class="cls-3" points="907.05 402.02 898.59 393.56 895.98 396.18 898.22 398.42 879.21 417.42 875.79 417.74 871.65 424.98 875.63 428.96 882.94 424.74 883.19 421.4 902.2 402.39 904.43 404.63 907.05 402.02"/><path class="cls-3" d="M914.61,374.54l-16.54,16.54,11.45,11.45,16.84-16.84a3.25,3.25,0,0,0,0-4.6l-6.55-6.55A3.68,3.68,0,0,0,914.61,374.54Z"/><rect class="cls-1" x="761.41" y="711.96" width="95.15" height="88.04"/><polygon class="cls-2" points="831.66 737.63 856.56 766.19 856.56 800 803.85 800 780.5 784.93 786.93 780.55 787.23 777.34 806.92 757.2 809.18 759.43 810.93 758.24 803.79 750.27 805.82 748.6 831.66 737.63"/><polygon class="cls-3" points="811.9 758 803.44 749.54 800.83 752.15 803.07 754.39 784.06 773.4 780.64 773.72 776.5 780.96 780.48 784.94 787.79 780.72 788.04 777.38 807.04 758.37 809.28 760.61 811.9 758"/><path class="cls-3" d="M819.46,730.52l-16.54,16.54,11.45,11.45,16.84-16.84a3.25,3.25,0,0,0,0-4.6l-6.55-6.55A3.68,3.68,0,0,0,819.46,730.52Z"/><polyline class="cls-2" points="814.47 283.49 856.51 322.13 856.53 355.98 808.38 355.98 800.53 338.01 805.17 338.13 808.98 336.11 809.65 319.04 807.07 318.92 800.37 319.57 800.37 316.48 800.58 296.79 814.44 283.47"/><polyline class="cls-2" points="910.72 642.24 951.73 678.11 951.73 711.96 909.53 711.96 901.68 693.71 901.6 668.93 902.17 662.4 898.39 658.26 897 642.39"/><polyline class="cls-2" points="921.97 114.46 951.69 143.66 951.71 177.51 913.8 177.51 899.92 160.54 905.87 134.48 906.44 127.96 902.65 123.81 902.69 116.83"/><polyline class="cls-7" points="826.7 472.58 856.56 507.56 856.56 531.11 812.38 531.19 786.21 514.3 811.71 490.06 816.35 486.73 820.63 481.5 824.44 478.41"/><path class="cls-3" d="M801,301.52a4.34,4.34,0,1,1,8.69,0v13.7h5.63a2.93,2.93,0,0,0,2.91-3.27l-3.28-28H795.72l-3.28,28a2.92,2.92,0,0,0,2.9,3.26H801Z"/><path class="cls-3" d="M807.93,301.52a2.61,2.61,0,1,0-5.21,0V319h-2.59v17.54a2.92,2.92,0,0,0,2.92,2.92h4.55a2.92,2.92,0,0,0,2.92-2.92V319h-2.59Z"/><path class="cls-4" d="M812.66,148.73H797v-7.19h5.41v-7.77h7.19v7.77h3.11a9.29,9.29,0,0,0,9.28-9.28v-10a9.29,9.29,0,0,0-9.28-9.28H797v-7.19h15.71a16.49,16.49,0,0,1,16.47,16.47v10A16.49,16.49,0,0,1,812.66,148.73Z"/><polygon class="cls-4" points="788.89 153.91 788.89 155.99 791.15 155.99 791.15 153.91 802.36 153.91 802.36 151.46 809.55 151.46 809.55 153.91 820.77 153.91 820.77 155.99 827.22 155.99 827.22 153.91 833.66 153.91 833.66 161.67 827.22 161.67 827.22 159.59 820.77 159.59 820.77 161.67 791.15 161.67 791.15 159.59 788.89 159.59 788.89 161.67 782.44 161.67 782.44 153.91 788.89 153.91"/><path class="cls-4" d="M809.48,128.3a2.55,2.55,0,0,1,2.54,2.55v1H799.94v-1a2.55,2.55,0,0,1,2.54-2.55Z"/><path class="cls-3" d="M898.37,647.8h13.94v-1.47a6.19,6.19,0,0,0-6.19-6.19H889v7.66h2.1l.75.75a.76.76,0,0,1,0,1.07l-.45.45a.76.76,0,0,0,0,1.07l.45.45a.76.76,0,0,1,0,1.07l-.45.45a.76.76,0,0,0,0,1.07l.45.45a.76.76,0,0,1,0,1.07l-.47.47a.76.76,0,0,0,0,1c.47.52.94,1.09.94,1.09H889v2.21h-2.84v3.24H889V666h2l.85.85a.76.76,0,0,1,0,1.07l-.56.56a.3.3,0,0,0,.21.51h6.88v-3h3.24V693.1a3,3,0,0,0,3,3h2.21a3,3,0,0,0,3-3V666h2.48v-7.66h-2.48v-3H901.6v3h-3.24Z"/><path class="cls-5" d="M832.71,36.46a8.93,8.93,0,0,0,1.41-12.55l-2.23-2.79a8.93,8.93,0,0,0-12.55-1.41l-32.5,25.94L800.21,62.4ZM825,32.89a2.36,2.36,0,0,1-.37,3.31L817.38,42a2.36,2.36,0,0,1-3.31-.37l-1.2-1.5-13.15,10.5-1.46-1.82,13.16-10.5-1.2-1.5a2.35,2.35,0,0,1,.37-3.31l7.21-5.76a2.36,2.36,0,0,1,3.31.37l1.2,1.5L826.83,26l1.45,1.82-4.52,3.61Z"/><path class="cls-5" d="M800.14,32.42l-.64-.81a2.36,2.36,0,0,0-3.73.06l-3,4-4.6,2a2.36,2.36,0,0,0-.88,3.62l.64.81Z"/><polygon class="cls-5" points="781.79 52.05 783.27 73.55 797.46 62.24 786.39 48.37 781.79 52.05"/><path class="cls-1" d="M826.2,199.42v-6H786.42v6H781v17.9l23.21,3.73V231h-2.1v18.28h8.43V231h-2.34V217.84L785,214.11V203.42h1.41v6.05H826.2v-6.05h1.6v-4Zm-2.07,8.76s-.76-.27-1.35-2.9c-.52-2.33-3-1.77-4.19-1.19-.86.41-2.59,1.71-2.59-1.55s-2.13-1.13-3.64-2.37-.71-2.47-1.38-3c-1.38-1.17-5.12-1.69-5.12-1.69h18.27Z"/><path class="cls-1" d="M909.88,305.2l4.47-5.17L909,283.64h-5.3v4.87a4.37,4.37,0,0,1,0,8.7v2.3h-.9v-2.3a4.37,4.37,0,0,1,0-8.71v-4.86h-5.3L892.24,300l4.47,5.17a42.09,42.09,0,0,0-11.36,29.29,4.79,4.79,0,1,0,9.59,0,32.69,32.69,0,0,1,8.36-22.32,32.69,32.69,0,0,1,8.36,22.32,4.79,4.79,0,1,0,9.59,0A42.09,42.09,0,0,0,909.88,305.2Z"/><path class="cls-5" d="M925.76,561.63a1.9,1.9,0,0,0-2,.43l-6.23,6.29-9.08-9,6.27-6.33a1.9,1.9,0,0,0-1.28-3.23,14,14,0,0,0-13.79,18.46l-27,27.24a4.11,4.11,0,0,0,0,5.81l3.24,3.21a4.1,4.1,0,0,0,5.81,0l27-27.26A14,14,0,0,0,927,563.33,1.9,1.9,0,0,0,925.76,561.63Zm-45.3,38.47a2.44,2.44,0,1,1,0-3.45A2.44,2.44,0,0,1,880.46,600.11Z"/><path class="cls-3" d="M923.64,120.37a11.52,11.52,0,0,0-11.52-11.52H893.94v1.92h-1.31v-4.52H884.9v18.15h7.72v-4.52h1.31v1.92h5.56V159.1a3.1,3.1,0,0,0,3.1,3.1h3.35a3.1,3.1,0,0,0,3.1-3.1V121.81h14.59Z"/><path class="cls-4" d="M924.67,57.78v1.47h-9.35V42.68h0a21.35,21.35,0,0,0-42.66,0h0V65.53h42.76V62.19h9.35v7.88h1.26a2.35,2.35,0,0,0,2.35-2.35v-7.6a2.35,2.35,0,0,0-2.35-2.35ZM893.93,55a11.39,11.39,0,1,1,11.38-11.38A11.39,11.39,0,0,1,893.93,55Z"/><path class="cls-4" d="M891.9,42.89v0a2.51,2.51,0,0,0,1.92-2.43c0-1.44-1.24-2.61-3.48-2.61a6.59,6.59,0,0,0-3.24.79l.5,1.77a4.75,4.75,0,0,1,2.19-.63c1,0,1.55.47,1.55,1.09,0,.89-1,1.19-1.87,1.21h-1v1.76h1c1.08,0,2.11.47,2.11,1.5,0,.79-.65,1.4-1.92,1.4a5.82,5.82,0,0,1-2.44-.64l-.5,1.84a6.17,6.17,0,0,0,3.11.74c2.66,0,4.29-1.36,4.29-3.21A2.6,2.6,0,0,0,891.9,42.89Z"/><path class="cls-4" d="M900.64,42.94a1.85,1.85,0,0,0-1,.25,2.29,2.29,0,0,0-.67.62h0a1.47,1.47,0,0,0-1.42-.88,1.8,1.8,0,0,0-1.57.82h0l-.07-.7h-1.35c0,.45,0,1,0,1.65v3.52h1.57v-3a1,1,0,0,1,.06-.4.82.82,0,0,1,.75-.58c.51,0,.74.45.74,1.1v2.9h1.57v-3a1.32,1.32,0,0,1,.07-.41.79.79,0,0,1,.74-.56c.52,0,.76.44.76,1.19v2.81h1.57v-3C902.39,43.64,901.64,42.94,900.64,42.94Z"/><path class="cls-1" d="M831.83,479l-5.47-6.85L811.62,484l1.24,1.55L801,495l-.89-1.12-16,12.76a3.23,3.23,0,0,0-.51,4.54l2.18,2.73a3.23,3.23,0,0,0,4.54.51l16-12.76-.89-1.12L817.32,491a2.24,2.24,0,0,0,3,.17l3.05-2.43,1.75,2.2,5.09-4.06-1.75-2.2,3-2.43A2.27,2.27,0,0,0,831.83,479Z"/><path class="cls-1" d="M811.63,481.55,824,471.68l-9.18-11.51a2.27,2.27,0,0,0-3.19-.36l-8.82,7a2.27,2.27,0,0,0-.36,3.19Zm3.62-15.76,4.47,5.6-1.43,1.14-4.47-5.61Zm-2.51-3.15,1.39,1.74-1.43,1.14-1.39-1.74Z"/><rect class="cls-3" x="1046.86" y="711.96" width="95.18" height="87.57"/><rect class="cls-5" x="951.71" y="711.96" width="95.15" height="87.57"/><polyline class="cls-2" points="1013.07 740.27 1046.86 765.2 1046.86 799.05 1005.65 799.07 990.35 782.87 992.49 751.81 996.18 742.06 1009.62 742.53 1013.07 740.27"/><path class="cls-4" d="M1013.07,740.27h0a11.68,11.68,0,0,1-11.54-10h-2.68v-2.11h-9v2.11H975.57v15.23h14.22v35.77a2.94,2.94,0,0,0,2.94,2.94h3.18a2.94,2.94,0,0,0,2.94-2.94V745.51h14.22Z"/><polyline class="cls-7" points="1112.33 740.51 1142.2 775.49 1142.2 799.05 1098.02 799.13 1071.84 782.23 1097.34 758 1101.98 754.67 1106.27 749.43 1110.07 746.34"/><path class="cls-1" d="M1117.46,747l-5.47-6.85-14.74,11.76,1.24,1.55-11.88,9.48-.89-1.12-16,12.76a3.23,3.23,0,0,0-.51,4.54l2.18,2.73a3.23,3.23,0,0,0,4.54.51l16-12.76-.89-1.12,11.93-9.52a2.24,2.24,0,0,0,3,.17l3.05-2.43,1.75,2.2,5.09-4.06-1.75-2.2,3-2.43A2.27,2.27,0,0,0,1117.46,747Z"/><path class="cls-1" d="M1097.27,749.48l12.37-9.87-9.18-11.51a2.27,2.27,0,0,0-3.19-.36l-8.82,7a2.27,2.27,0,0,0-.36,3.19Zm3.62-15.76,4.47,5.6-1.43,1.14-4.47-5.61Zm-2.51-3.15,1.39,1.74-1.43,1.14L1097,731.7Z"/><path class="cls-1" d="M818.5,663.68l-4.39-23.36h-2.88v19.36h-3.76V640.32h-2.88l-4.39,23.36L803.9,668a34.83,34.83,0,0,0-9.4,24.23,4,4,0,1,0,7.93,0,27,27,0,0,1,6.79-18.32h0s3.66-3.94,6.14-6.55C816.45,666.17,818.5,663.68,818.5,663.68Zm-9.19,4.92a1.42,1.42,0,1,1,1.42-1.43A1.42,1.42,0,0,1,809.31,668.6Z"/><path class="cls-1" d="M815.74,669l-5.43,5.85a27,27,0,0,1,6,17.32,4,4,0,1,0,7.93,0A34.79,34.79,0,0,0,815.74,669Z"/><path class="cls-4" d="M835.6,566,824,550.77a3.4,3.4,0,0,0-4.76-.66L803,562.41l1.88,1.91-14.64,11.05a20.62,20.62,0,0,0-5.67,26.28l-1,.73,2,2.68,34.09-25.72,1.65,1.68,13.52-10.25A3.39,3.39,0,0,0,835.6,566Zm-44.66,30.87a12.83,12.83,0,0,1,4-15.29l15.48-11.68,6.93,7Zm37.65-28.49-6.61,5L811.73,563l8.14-6.17a1.29,1.29,0,0,1,1.8.25l.63.83a2.91,2.91,0,0,0-.56,4.08l2.38,3.15a2.88,2.88,0,0,0,1.93,1.13,2.91,2.91,0,0,0,2.16-.57l.63.83a1.29,1.29,0,0,1-.25,1.8Z"/><rect class="cls-3" x="951.71" y="355.98" width="95.18" height="88.05"/><rect class="cls-1" x="1046.89" y="355.98" width="95.15" height="88.01"/><rect class="cls-4" x="951.7" y="89.47" width="95.18" height="88.04"/><rect class="cls-1" x="1046.88" y="89.47" width="95.15" height="88.04"/><rect class="cls-3" x="951.7" y="177.51" width="95.18" height="87.57"/><rect class="cls-5" x="1046.88" y="177.51" width="95.15" height="87.57"/><rect class="cls-1" x="951.7" width="95.15" height="89.47"/><rect class="cls-3" x="1046.85" width="95.18" height="89.47"/><rect class="cls-5" x="951.7" y="264.6" width="95.18" height="91.37"/><rect class="cls-4" x="1046.88" y="264.6" width="95.15" height="91.37"/><polyline class="cls-6" points="1013.84 110.17 1046.88 143.99 1046.88 177.51 997.98 177.39 970.14 147.88"/><polyline class="cls-6" points="1116.89 295.85 1142.03 320.7 1142.03 355.98 1079.89 355.98 1062.24 333.85 1068.82 328.37"/><polygon class="cls-2" points="1117.13 115.14 1142.03 143.7 1142.03 177.51 1089.32 177.51 1065.96 162.44 1072.4 158.06 1072.7 154.84 1092.39 134.71 1094.65 136.94 1096.4 135.75 1089.27 127.78 1091.29 126.11 1117.13 115.14"/><polygon class="cls-7" points="1099.32 17.13 1142.03 59.72 1142.06 89.47 1095.71 89.47 1076.12 70.31 1082.9 50.68 1088.37 45.8 1091.91 44.76 1098.01 35.45 1099.32 17.13"/><polygon class="cls-7" points="1004.54 374.06 1046.89 416.69 1046.92 443.91 1000.57 443.98 985.5 426.71 996.57 399.1 1002.87 392.93 1004.54 374.06"/><polyline class="cls-2" points="1108.24 205.83 1142.03 230.75 1142.03 264.6 1100.82 264.62 1085.52 248.42 1087.66 217.37 1091.35 207.61 1104.79 208.09 1108.23 205.82"/><polyline class="cls-2" points="975.97 338.25 998.45 355.98 1046.86 355.98 1046.88 334.74 1022.61 299.11 1011.42 286.73 984.3 311.6 979.66 316.24 977.75 321.23"/><path class="cls-5" d="M1025.14,121.84l-11.79-12.39a3,3,0,0,0-4.3-.11l-13.19,12.56.83.67-26.6,25.32,7.34,7.71.26-1.62,3.55.34.53-3.28,3.52.51.56-3.46,3.51.57.56-3.51,3.51.56.56-3.52,3.51.57.57-3.51,3.51.56.57-3.51,3.51.56.56-3.51,4.56.73,3.25,2.51,11-10.46A3,3,0,0,0,1025.14,121.84Zm-6,2.82-5.38,5.12-10.14-8.18,6.61-6.29a1.15,1.15,0,0,1,1.62,0l.65.68a2.61,2.61,0,0,0-.09,3.69l2.43,2.56a2.61,2.61,0,0,0,3.69.09l.65.68a1.15,1.15,0,0,1,0,1.63Z"/><rect class="cls-4" x="1046.89" y="444.02" width="95.18" height="89.47"/><polyline class="cls-6" points="1109.04 466.15 1142.08 499.97 1142.08 533.49 1093.18 533.37 1065.34 503.86"/><path class="cls-5" d="M1120.34,477.82l-11.79-12.39a3,3,0,0,0-4.3-.11l-13.19,12.56.83.67-26.6,25.32,7.34,7.71.26-1.62,3.55.34L1077,507l3.52.51.56-3.46,3.51.57.56-3.51,3.51.56.56-3.52,3.51.57.57-3.51,3.51.56.57-3.51,3.51.56.56-3.51,4.56.73,3.25,2.51,11-10.46A3,3,0,0,0,1120.34,477.82Zm-6,2.82-5.38,5.12-10.14-8.18,6.61-6.29a1.15,1.15,0,0,1,1.62,0l.65.68a2.61,2.61,0,0,0-.09,3.69l2.43,2.56a2.61,2.61,0,0,0,3.69.09l.65.68a1.15,1.15,0,0,1,0,1.63Z"/><path class="cls-4" d="M1108.23,205.83h0a11.68,11.68,0,0,1-11.54-10H1094v-2.11h-9v2.11h-14.22v15.23H1085v35.77a2.94,2.94,0,0,0,2.94,2.94h3.18a2.94,2.94,0,0,0,2.94-2.94V211.06h14.22Z"/><polygon class="cls-3" points="1097.37 135.51 1088.91 127.05 1086.3 129.66 1088.54 131.9 1069.53 150.91 1066.11 151.23 1061.97 158.47 1065.95 162.45 1073.26 158.23 1073.51 154.89 1092.51 135.88 1094.75 138.12 1097.37 135.51"/><path class="cls-3" d="M1104.93,108l-16.54,16.54L1099.85,136l16.84-16.84a3.25,3.25,0,0,0,0-4.6l-6.55-6.55A3.68,3.68,0,0,0,1104.93,108Z"/><rect class="cls-1" x="951.73" y="444.02" width="95.15" height="89.47"/><polygon class="cls-2" points="1021.98 471.12 1046.88 499.68 1046.88 533.49 994.16 533.49 970.81 518.42 977.25 514.04 977.55 510.82 997.24 490.69 999.5 492.92 1001.25 491.73 994.11 483.76 996.14 482.09 1021.98 471.12"/><polygon class="cls-3" points="1002.22 491.49 993.76 483.03 991.14 485.64 993.39 487.88 974.38 506.89 970.96 507.21 966.82 514.45 970.79 518.43 978.11 514.21 978.36 510.87 997.36 491.86 999.6 494.1 1002.22 491.49"/><path class="cls-3" d="M1009.78,464l-16.54,16.54L1004.69,492l16.84-16.84a3.25,3.25,0,0,0,0-4.6L1015,464A3.68,3.68,0,0,0,1009.78,464Z"/><polyline class="cls-2" points="1004.78 16.97 1046.83 55.62 1046.85 89.47 998.7 89.47 990.85 71.5 995.49 71.62 999.3 69.6 999.97 52.52 997.38 52.41 990.69 53.06 990.69 49.97 990.9 30.28 1004.76 16.96"/><polyline class="cls-2" points="1101.04 375.69 1142.05 410.81 1142.05 443.94 1099.85 443.94 1092 426.08 1091.92 401.82 1092.49 395.43 1088.7 391.38 1087.32 375.85"/><polyline class="cls-7" points="1017.02 206.06 1046.88 241.04 1046.88 264.6 1002.7 264.68 976.52 247.79 1002.02 223.55 1006.66 220.22 1010.95 214.99 1014.76 211.9"/><path class="cls-3" d="M991.3,35a4.34,4.34,0,1,1,8.69,0v13.7h5.63a2.93,2.93,0,0,0,2.91-3.27l-3.28-28H986l-3.28,28a2.92,2.92,0,0,0,2.9,3.26h5.64Z"/><path class="cls-3" d="M998.25,35A2.61,2.61,0,1,0,993,35V52.5h-2.59V70A2.92,2.92,0,0,0,993.37,73h4.55a2.92,2.92,0,0,0,2.92-2.92V52.5h-2.59Z"/><path class="cls-3" d="M1088.69,381.29h13.94v-1.47a6.19,6.19,0,0,0-6.19-6.19H1079.3v7.66h2.1l.75.75a.76.76,0,0,1,0,1.07l-.45.45a.76.76,0,0,0,0,1.07l.45.45a.76.76,0,0,1,0,1.07l-.45.45a.76.76,0,0,0,0,1.07l.45.45a.76.76,0,0,1,0,1.07l-.47.47a.76.76,0,0,0,0,1c.47.52.94,1.09.94,1.09h-3.29V394h-2.84v3.24h2.84v2.21h2l.85.85a.76.76,0,0,1,0,1.07l-.56.56a.3.3,0,0,0,.21.51h6.88v-3h3.24v27.12a3,3,0,0,0,3,3h2.21a3,3,0,0,0,3-3V399.47h2.48v-7.66h-2.48v-3h-8.23v3h-3.24Z"/><path class="cls-1" d="M1100.2,38.69l4.47-5.17-5.3-16.39h-5.3V22a4.37,4.37,0,0,1,0,8.7V33h-.9V30.7a4.37,4.37,0,0,1,0-8.71V17.13h-5.3l-5.3,16.39,4.47,5.17A42.09,42.09,0,0,0,1075.66,68a4.79,4.79,0,1,0,9.59,0,32.69,32.69,0,0,1,8.36-22.32A32.69,32.69,0,0,1,1102,68a4.79,4.79,0,1,0,9.59,0A42.09,42.09,0,0,0,1100.2,38.69Z"/><path class="cls-5" d="M1116.08,295.12a1.9,1.9,0,0,0-2,.43l-6.23,6.29-9.08-9,6.27-6.33a1.9,1.9,0,0,0-1.28-3.23,14,14,0,0,0-13.79,18.46L1063,329a4.11,4.11,0,0,0,0,5.81l3.24,3.21a4.1,4.1,0,0,0,5.81,0l27-27.26a14,14,0,0,0,18.26-13.91A1.9,1.9,0,0,0,1116.08,295.12Zm-45.3,38.47a2.44,2.44,0,1,1,0-3.45A2.44,2.44,0,0,1,1070.78,333.6Z"/><path class="cls-1" d="M1022.14,212.54l-5.47-6.85-14.74,11.76,1.24,1.55-11.88,9.48-.89-1.12-16,12.76a3.23,3.23,0,0,0-.51,4.54l2.18,2.73a3.23,3.23,0,0,0,4.54.51l16-12.76-.89-1.12,11.93-9.52a2.24,2.24,0,0,0,3,.17l3.05-2.43,1.75,2.2,5.09-4.06-1.75-2.2,3-2.43A2.27,2.27,0,0,0,1022.14,212.54Z"/><path class="cls-1" d="M1002,215l12.37-9.87-9.18-11.51a2.27,2.27,0,0,0-3.19-.36l-8.82,7a2.27,2.27,0,0,0-.36,3.19Zm3.62-15.76,4.47,5.6-1.43,1.14-4.47-5.61Zm-2.51-3.15,1.39,1.74L1003,199l-1.39-1.74Z"/><path class="cls-1" d="M1008.82,397.17l-4.39-23.36h-2.88v19.36h-3.76V373.81h-2.88l-4.39,23.36,3.69,4.28a34.83,34.83,0,0,0-9.4,24.23,4,4,0,0,0,7.93,0,27,27,0,0,1,6.79-18.32h0s3.66-3.94,6.14-6.55C1006.76,399.66,1008.82,397.17,1008.82,397.17Zm-9.19,4.92a1.42,1.42,0,1,1,1.42-1.43A1.42,1.42,0,0,1,999.63,402.09Z"/><path class="cls-1" d="M1006.06,402.51l-5.43,5.85a27,27,0,0,1,6,17.32,4,4,0,1,0,7.93,0A34.79,34.79,0,0,0,1006.06,402.51Z"/><path class="cls-4" d="M1025.92,299.5l-11.55-15.24a3.4,3.4,0,0,0-4.76-.66l-16.23,12.3,1.88,1.91-14.64,11.05a20.62,20.62,0,0,0-5.67,26.28l-1,.73,2,2.68,34.09-25.72,1.65,1.68,13.52-10.25A3.39,3.39,0,0,0,1025.92,299.5Zm-44.66,30.87a12.83,12.83,0,0,1,4-15.29l15.48-11.68,6.93,7Zm37.65-28.49-6.61,5L1002,296.52l8.14-6.17a1.29,1.29,0,0,1,1.8.25l.63.83a2.91,2.91,0,0,0-.56,4.08l2.38,3.15a2.88,2.88,0,0,0,1.93,1.13,2.91,2.91,0,0,0,2.16-.57l.63.83a1.29,1.29,0,0,1-.25,1.8Z"/><path class="cls-5" d="M911.42,231.33a12.4,12.4,0,0,0-6.27-10,5.09,5.09,0,0,0,.1-.95,5.68,5.68,0,0,0-3.24-5.11l0-20.59a2.14,2.14,0,0,0-2.14-2.14h-.66a2.14,2.14,0,0,0-2.14,2.14l0,20.59a5.69,5.69,0,0,0-3.23,5.12,5,5,0,0,0,.1.95,12.39,12.39,0,0,0-6.25,10c-.26,3-1.28,10.13-1.87,14.13a2.5,2.5,0,0,0,2.47,2.86l22.55,0a2.5,2.5,0,0,0,2.47-2.86C912.71,241.45,911.68,234.31,911.42,231.33ZM906.56,242l-.86-6-.85,6h-4.1l-1.19-13.38L898.38,242h-4.1l-.86-6-.85,6h-2.77c.52-3.82,1.38-10.17,1.4-10.36,1-10.95,15.72-11,16.72,0,0,.19.89,6.54,1.42,10.36Z"/><rect class="cls-5" x="951.71" y="531.11" width="95.15" height="91.37"/><rect class="cls-1" x="1046.86" y="531.11" width="95.18" height="91.37"/><rect class="cls-3" x="951.71" y="622.49" width="95.15" height="89.47"/><rect class="cls-4" x="1046.86" y="622.49" width="95.18" height="89.47"/><polyline class="cls-6" points="1091.92 640.73 1142.05 687.04 1142.05 711.96 1095.57 711.96 1076.21 693.75 1080.49 678.9 1082.87 670.59 1089.69 667.88 1091.92 640.73"/><polygon class="cls-7" points="1016.64 640.57 1046.86 683.93 1046.86 711.96 1000.54 711.96 992.73 696.25 1000.34 679.49 997.73 677.7 996.75 668.87 997.25 666.68 973.81 661.77 974.64 649.43 1016.52 656.38 1016.64 640.57"/><polyline class="cls-2" points="982.79 603.63 981.48 606.64 978.9 606.65 978.81 605.53 974.94 605.59 972.74 606.63 998.43 622.37 1046.84 622.48 1046.78 609.72 1017.12 558.83 1016.96 561.25 1016.25 581.64 1005.54 590.05 994.51 589.49 987.26 589.71 987.28 593.71 992.49 598.45 992.37 602.14 981.48 606.64"/><polyline class="cls-2" points="1112.3 559.43 1142.03 588.64 1142.05 622.49 1104.13 622.49 1090.25 605.51 1096.2 579.46 1096.78 572.93 1092.99 568.79 1093.03 561.81"/><path class="cls-4" d="M1003,593.71H987.28v-7.19h5.41v-7.77h7.19v7.77H1003a9.29,9.29,0,0,0,9.28-9.28v-10A9.29,9.29,0,0,0,1003,558H987.28V550.8H1003a16.49,16.49,0,0,1,16.47,16.47v10A16.49,16.49,0,0,1,1003,593.71Z"/><polygon class="cls-4" points="979.22 598.88 979.22 600.96 981.48 600.96 981.48 598.88 992.69 598.88 992.69 596.43 999.89 596.43 999.89 598.88 1011.1 598.88 1011.1 600.96 1017.55 600.96 1017.55 598.88 1023.99 598.88 1023.99 606.64 1017.55 606.64 1017.55 604.56 1011.1 604.56 1011.1 606.64 981.48 606.64 981.48 604.56 979.22 604.56 979.22 606.64 972.78 606.64 972.78 598.88 979.22 598.88"/><path class="cls-4" d="M999.81,573.27a2.55,2.55,0,0,1,2.54,2.55v1H990.27v-1a2.55,2.55,0,0,1,2.54-2.55Z"/><path class="cls-1" d="M1016.53,646.3v-6H976.75v6h-5.4v17.9l23.21,3.73v9.9h-2.1v18.28h8.43V677.83h-2.34V664.72L975.34,661V650.3h1.41v6.05h39.78V650.3h1.6v-4Zm-2.07,8.76s-.76-.27-1.35-2.9c-.52-2.33-3-1.77-4.19-1.19-.86.41-2.59,1.71-2.59-1.55s-2.13-1.13-3.64-2.37-.71-2.47-1.38-3c-1.38-1.17-5.12-1.69-5.12-1.69h18.27Z"/><path class="cls-3" d="M1114,565.35a11.52,11.52,0,0,0-11.52-11.52h-18.19v1.92H1083v-4.52h-7.72v18.15H1083v-4.52h1.31v1.92h5.56v37.28a3.1,3.1,0,0,0,3.1,3.1h3.35a3.1,3.1,0,0,0,3.1-3.1V566.78H1114Z"/><path class="cls-5" d="M1101.75,678.2a12.4,12.4,0,0,0-6.27-10,5.09,5.09,0,0,0,.1-.95,5.68,5.68,0,0,0-3.24-5.11l0-20.59a2.14,2.14,0,0,0-2.14-2.14h-.66a2.14,2.14,0,0,0-2.14,2.14l0,20.59a5.69,5.69,0,0,0-3.23,5.12,5,5,0,0,0,.1.95,12.39,12.39,0,0,0-6.25,10c-.26,3-1.28,10.13-1.87,14.13a2.5,2.5,0,0,0,2.47,2.86l22.55,0a2.5,2.5,0,0,0,2.47-2.86C1103,688.32,1102,681.19,1101.75,678.2Zm-4.86,10.67-.86-6-.85,6h-4.1l-1.19-13.38-1.17,13.38h-4.1l-.86-6-.85,6h-2.77c.52-3.82,1.38-10.17,1.4-10.36,1-10.95,15.72-11,16.72,0,0,.19.89,6.54,1.42,10.36Z"/></svg>